solid OpenSCAD_Model
  facet normal 1 -0 0
    outer loop
      vertex 40 0 20
      vertex 40 30 0
      vertex 40 30 20
    endloop
  endfacet
  facet normal 1 0 0
    outer loop
      vertex 40 30 0
      vertex 40 0 20
      vertex 40 0 0
    endloop
  endfacet
  facet normal 0 0 1
    outer loop
      vertex 40 30 20
      vertex 36 15 20
      vertex 40 0 20
    endloop
  endfacet
  facet normal 0 0 1
    outer loop
      vertex 40 30 20
      vertex 35.6749 16.9482 20
      vertex 36 15 20
    endloop
  endfacet
  facet normal 0 0 1
    outer loop
      vertex 40 30 20
      vertex 34.7348 18.6853 20
      vertex 35.6749 16.9482 20
    endloop
  endfacet
  facet normal 0 0 1
    outer loop
      vertex 40 30 20
      vertex 33.2817 20.023 20
      vertex 34.7348 18.6853 20
    endloop
  endfacet
  facet normal 0 0 1
    outer loop
      vertex 40 30 20
      vertex 31.4729 20.8164 20
      vertex 33.2817 20.023 20
    endloop
  endfacet
  facet normal 0 0 1
    outer loop
      vertex 40 30 20
      vertex 29.5045 20.9795 20
      vertex 31.4729 20.8164 20
    endloop
  endfacet
  facet normal 0 0 1
    outer loop
      vertex 40 30 20
      vertex 27.5898 20.4946 20
      vertex 29.5045 20.9795 20
    endloop
  endfacet
  facet normal -0 0 1
    outer loop
      vertex 11.4729 20.8164 20
      vertex 27.5898 20.4946 20
      vertex 40 30 20
    endloop
  endfacet
  facet normal 0 0 1
    outer loop
      vertex 24.0818 15.9876 20
      vertex 23 15 20
      vertex 24.0818 14.0124 20
    endloop
  endfacet
  facet normal -0 0 1
    outer loop
      vertex 22.4271 16.7634 20
      vertex 24.0818 15.9876 20
      vertex 24.7232 17.8557 20
    endloop
  endfacet
  facet normal 0 0 1
    outer loop
      vertex 24.0818 15.9876 20
      vertex 22.4271 16.7634 20
      vertex 23 15 20
    endloop
  endfacet
  facet normal 0 0 1
    outer loop
      vertex 20.9271 17.8532 20
      vertex 24.7232 17.8557 20
      vertex 25.9363 19.4143 20
    endloop
  endfacet
  facet normal 0 0 1
    outer loop
      vertex 24.7232 17.8557 20
      vertex 20.9271 17.8532 20
      vertex 22.4271 16.7634 20
    endloop
  endfacet
  facet normal 0 -0 1
    outer loop
      vertex 13.2817 20.023 20
      vertex 27.5898 20.4946 20
      vertex 11.4729 20.8164 20
    endloop
  endfacet
  facet normal 0 0 1
    outer loop
      vertex 25.9363 19.4143 20
      vertex 13.2817 20.023 20
      vertex 20.9271 17.8532 20
    endloop
  endfacet
  facet normal 0 0 1
    outer loop
      vertex 15.6749 16.9482 20
      vertex 17 15 20
      vertex 17.5729 16.7634 20
    endloop
  endfacet
  facet normal 0 0 1
    outer loop
      vertex 17 15 20
      vertex 15.6749 16.9482 20
      vertex 16 15 20
    endloop
  endfacet
  facet normal 0 0 1
    outer loop
      vertex 14.7348 18.6853 20
      vertex 17.5729 16.7634 20
      vertex 19.0729 17.8532 20
    endloop
  endfacet
  facet normal 0 0 1
    outer loop
      vertex 20.9271 17.8532 20
      vertex 13.2817 20.023 20
      vertex 19.0729 17.8532 20
    endloop
  endfacet
  facet normal 0 0 1
    outer loop
      vertex 17.5729 16.7634 20
      vertex 14.7348 18.6853 20
      vertex 15.6749 16.9482 20
    endloop
  endfacet
  facet normal 0 0 1
    outer loop
      vertex 19.0729 17.8532 20
      vertex 13.2817 20.023 20
      vertex 14.7348 18.6853 20
    endloop
  endfacet
  facet normal 0 0 1
    outer loop
      vertex 27.5898 20.4946 20
      vertex 13.2817 20.023 20
      vertex 25.9363 19.4143 20
    endloop
  endfacet
  facet normal -0 0 1
    outer loop
      vertex 0 30 20
      vertex 11.4729 20.8164 20
      vertex 40 30 20
    endloop
  endfacet
  facet normal 0 0 1
    outer loop
      vertex 11.4729 20.8164 20
      vertex 0 30 20
      vertex 9.50452 20.9795 20
    endloop
  endfacet
  facet normal 0 0 1
    outer loop
      vertex 4.08183 15.9876 20
      vertex 0 30 20
      vertex 4.08183 14.0124 20
    endloop
  endfacet
  facet normal 0 0 1
    outer loop
      vertex 4.72316 17.8557 20
      vertex 0 30 20
      vertex 4.08183 15.9876 20
    endloop
  endfacet
  facet normal 0 0 1
    outer loop
      vertex 5.93631 19.4143 20
      vertex 0 30 20
      vertex 4.72316 17.8557 20
    endloop
  endfacet
  facet normal 0 0 1
    outer loop
      vertex 7.58983 20.4946 20
      vertex 0 30 20
      vertex 5.93631 19.4143 20
    endloop
  endfacet
  facet normal 0 0 1
    outer loop
      vertex 9.50452 20.9795 20
      vertex 0 30 20
      vertex 7.58983 20.4946 20
    endloop
  endfacet
  facet normal -0 0 1
    outer loop
      vertex 35.6749 13.0518 20
      vertex 40 0 20
      vertex 36 15 20
    endloop
  endfacet
  facet normal -0 0 1
    outer loop
      vertex 34.7348 11.3147 20
      vertex 40 0 20
      vertex 35.6749 13.0518 20
    endloop
  endfacet
  facet normal -0 0 1
    outer loop
      vertex 33.2817 9.977 20
      vertex 40 0 20
      vertex 34.7348 11.3147 20
    endloop
  endfacet
  facet normal -0 0 1
    outer loop
      vertex 31.4729 9.1836 20
      vertex 40 0 20
      vertex 33.2817 9.977 20
    endloop
  endfacet
  facet normal -0 0 1
    outer loop
      vertex 29.5045 9.02049 20
      vertex 40 0 20
      vertex 31.4729 9.1836 20
    endloop
  endfacet
  facet normal 0 0 1
    outer loop
      vertex 27.5898 9.50536 20
      vertex 40 0 20
      vertex 29.5045 9.02049 20
    endloop
  endfacet
  facet normal -0 0 1
    outer loop
      vertex 13.2817 9.977 20
      vertex 27.5898 9.50536 20
      vertex 25.9363 10.5857 20
    endloop
  endfacet
  facet normal 0 0 1
    outer loop
      vertex 22.4271 13.2366 20
      vertex 24.0818 14.0124 20
      vertex 23 15 20
    endloop
  endfacet
  facet normal 0 0 1
    outer loop
      vertex 24.0818 14.0124 20
      vertex 22.4271 13.2366 20
      vertex 24.7232 12.1443 20
    endloop
  endfacet
  facet normal -0 0 1
    outer loop
      vertex 20.9271 12.1468 20
      vertex 24.7232 12.1443 20
      vertex 22.4271 13.2366 20
    endloop
  endfacet
  facet normal 0 0 1
    outer loop
      vertex 24.7232 12.1443 20
      vertex 20.9271 12.1468 20
      vertex 25.9363 10.5857 20
    endloop
  endfacet
  facet normal 0 0 1
    outer loop
      vertex 13.2817 9.977 20
      vertex 25.9363 10.5857 20
      vertex 20.9271 12.1468 20
    endloop
  endfacet
  facet normal 0 0 1
    outer loop
      vertex 13.2817 9.977 20
      vertex 20.9271 12.1468 20
      vertex 19.0729 12.1468 20
    endloop
  endfacet
  facet normal 0 0 1
    outer loop
      vertex 15.6749 13.0518 20
      vertex 17 15 20
      vertex 16 15 20
    endloop
  endfacet
  facet normal 0 0 1
    outer loop
      vertex 17 15 20
      vertex 15.6749 13.0518 20
      vertex 17.5729 13.2366 20
    endloop
  endfacet
  facet normal 0 0 1
    outer loop
      vertex 14.7348 11.3147 20
      vertex 17.5729 13.2366 20
      vertex 15.6749 13.0518 20
    endloop
  endfacet
  facet normal 0 0 1
    outer loop
      vertex 17.5729 13.2366 20
      vertex 14.7348 11.3147 20
      vertex 19.0729 12.1468 20
    endloop
  endfacet
  facet normal 0 0 1
    outer loop
      vertex 13.2817 9.977 20
      vertex 19.0729 12.1468 20
      vertex 14.7348 11.3147 20
    endloop
  endfacet
  facet normal 0 0 1
    outer loop
      vertex 27.5898 9.50536 20
      vertex 13.2817 9.977 20
      vertex 11.4729 9.1836 20
    endloop
  endfacet
  facet normal 0 0 1
    outer loop
      vertex 27.5898 9.50536 20
      vertex 11.4729 9.1836 20
      vertex 40 0 20
    endloop
  endfacet
  facet normal 0 0 1
    outer loop
      vertex 0 0 20
      vertex 11.4729 9.1836 20
      vertex 9.50452 9.02049 20
    endloop
  endfacet
  facet normal 0 0 1
    outer loop
      vertex 0 0 20
      vertex 9.50452 9.02049 20
      vertex 7.58983 9.50536 20
    endloop
  endfacet
  facet normal 0 0 1
    outer loop
      vertex 11.4729 9.1836 20
      vertex 0 0 20
      vertex 40 0 20
    endloop
  endfacet
  facet normal 0 0 1
    outer loop
      vertex 5.93631 10.5857 20
      vertex 0 0 20
      vertex 7.58983 9.50536 20
    endloop
  endfacet
  facet normal 0 0 1
    outer loop
      vertex 4.72316 12.1443 20
      vertex 0 0 20
      vertex 5.93631 10.5857 20
    endloop
  endfacet
  facet normal 0 0 1
    outer loop
      vertex 4.08183 14.0124 20
      vertex 0 0 20
      vertex 4.72316 12.1443 20
    endloop
  endfacet
  facet normal 0 0 1
    outer loop
      vertex 0 0 20
      vertex 4.08183 14.0124 20
      vertex 0 30 20
    endloop
  endfacet
  facet normal 0 0 -1
    outer loop
      vertex 40 0 0
      vertex 36 15 0
      vertex 40 30 0
    endloop
  endfacet
  facet normal 0 0 -1
    outer loop
      vertex 40 0 0
      vertex 35.6749 13.0518 0
      vertex 36 15 0
    endloop
  endfacet
  facet normal 0 0 -1
    outer loop
      vertex 40 0 0
      vertex 34.7348 11.3147 0
      vertex 35.6749 13.0518 0
    endloop
  endfacet
  facet normal 0 0 -1
    outer loop
      vertex 40 0 0
      vertex 33.2817 9.977 0
      vertex 34.7348 11.3147 0
    endloop
  endfacet
  facet normal 0 0 -1
    outer loop
      vertex 40 0 0
      vertex 31.4729 9.1836 0
      vertex 33.2817 9.977 0
    endloop
  endfacet
  facet normal 0 0 -1
    outer loop
      vertex 40 0 0
      vertex 29.5045 9.02049 0
      vertex 31.4729 9.1836 0
    endloop
  endfacet
  facet normal 0 0 -1
    outer loop
      vertex 40 0 0
      vertex 27.5898 9.50536 0
      vertex 29.5045 9.02049 0
    endloop
  endfacet
  facet normal 0 0 -1
    outer loop
      vertex 11.4729 9.1836 0
      vertex 27.5898 9.50536 0
      vertex 40 0 0
    endloop
  endfacet
  facet normal 0 0 -1
    outer loop
      vertex 24.0818 14.0124 0
      vertex 16 15 0
      vertex 24.0818 15.9876 0
    endloop
  endfacet
  facet normal 0 0 -1
    outer loop
      vertex 15.6749 13.0518 0
      vertex 24.0818 14.0124 0
      vertex 24.7232 12.1443 0
    endloop
  endfacet
  facet normal 0 0 -1
    outer loop
      vertex 14.7348 11.3147 0
      vertex 24.7232 12.1443 0
      vertex 25.9363 10.5857 0
    endloop
  endfacet
  facet normal 0 -0 -1
    outer loop
      vertex 13.2817 9.977 0
      vertex 27.5898 9.50536 0
      vertex 11.4729 9.1836 0
    endloop
  endfacet
  facet normal -0 0 -1
    outer loop
      vertex 24.0818 14.0124 0
      vertex 15.6749 13.0518 0
      vertex 16 15 0
    endloop
  endfacet
  facet normal -0 0 -1
    outer loop
      vertex 24.7232 12.1443 0
      vertex 14.7348 11.3147 0
      vertex 15.6749 13.0518 0
    endloop
  endfacet
  facet normal -0 0 -1
    outer loop
      vertex 25.9363 10.5857 0
      vertex 13.2817 9.977 0
      vertex 14.7348 11.3147 0
    endloop
  endfacet
  facet normal 0 0 -1
    outer loop
      vertex 27.5898 9.50536 0
      vertex 13.2817 9.977 0
      vertex 25.9363 10.5857 0
    endloop
  endfacet
  facet normal 0 0 -1
    outer loop
      vertex 0 0 0
      vertex 11.4729 9.1836 0
      vertex 40 0 0
    endloop
  endfacet
  facet normal 0 0 -1
    outer loop
      vertex 11.4729 9.1836 0
      vertex 0 0 0
      vertex 9.50452 9.02049 0
    endloop
  endfacet
  facet normal -0 0 -1
    outer loop
      vertex 4.08183 14.0124 0
      vertex 0 0 0
      vertex 4.08183 15.9876 0
    endloop
  endfacet
  facet normal -0 0 -1
    outer loop
      vertex 4.72316 12.1443 0
      vertex 0 0 0
      vertex 4.08183 14.0124 0
    endloop
  endfacet
  facet normal -0 0 -1
    outer loop
      vertex 5.93631 10.5857 0
      vertex 0 0 0
      vertex 4.72316 12.1443 0
    endloop
  endfacet
  facet normal -0 0 -1
    outer loop
      vertex 7.58983 9.50536 0
      vertex 0 0 0
      vertex 5.93631 10.5857 0
    endloop
  endfacet
  facet normal -0 0 -1
    outer loop
      vertex 9.50452 9.02049 0
      vertex 0 0 0
      vertex 7.58983 9.50536 0
    endloop
  endfacet
  facet normal 0 0 -1
    outer loop
      vertex 35.6749 16.9482 0
      vertex 40 30 0
      vertex 36 15 0
    endloop
  endfacet
  facet normal 0 0 -1
    outer loop
      vertex 34.7348 18.6853 0
      vertex 40 30 0
      vertex 35.6749 16.9482 0
    endloop
  endfacet
  facet normal 0 0 -1
    outer loop
      vertex 33.2817 20.023 0
      vertex 40 30 0
      vertex 34.7348 18.6853 0
    endloop
  endfacet
  facet normal 0 0 -1
    outer loop
      vertex 31.4729 20.8164 0
      vertex 40 30 0
      vertex 33.2817 20.023 0
    endloop
  endfacet
  facet normal 0 0 -1
    outer loop
      vertex 29.5045 20.9795 0
      vertex 40 30 0
      vertex 31.4729 20.8164 0
    endloop
  endfacet
  facet normal 0 0 -1
    outer loop
      vertex 27.5898 20.4946 0
      vertex 40 30 0
      vertex 29.5045 20.9795 0
    endloop
  endfacet
  facet normal 0 0 -1
    outer loop
      vertex 13.2817 20.023 0
      vertex 27.5898 20.4946 0
      vertex 25.9363 19.4143 0
    endloop
  endfacet
  facet normal 0 0 -1
    outer loop
      vertex 15.6749 16.9482 0
      vertex 24.0818 15.9876 0
      vertex 16 15 0
    endloop
  endfacet
  facet normal 0 0 -1
    outer loop
      vertex 24.0818 15.9876 0
      vertex 15.6749 16.9482 0
      vertex 24.7232 17.8557 0
    endloop
  endfacet
  facet normal 0 0 -1
    outer loop
      vertex 14.7348 18.6853 0
      vertex 24.7232 17.8557 0
      vertex 15.6749 16.9482 0
    endloop
  endfacet
  facet normal 0 0 -1
    outer loop
      vertex 24.7232 17.8557 0
      vertex 14.7348 18.6853 0
      vertex 25.9363 19.4143 0
    endloop
  endfacet
  facet normal 0 0 -1
    outer loop
      vertex 13.2817 20.023 0
      vertex 25.9363 19.4143 0
      vertex 14.7348 18.6853 0
    endloop
  endfacet
  facet normal -0 0 -1
    outer loop
      vertex 27.5898 20.4946 0
      vertex 13.2817 20.023 0
      vertex 11.4729 20.8164 0
    endloop
  endfacet
  facet normal 0 0 -1
    outer loop
      vertex 27.5898 20.4946 0
      vertex 11.4729 20.8164 0
      vertex 40 30 0
    endloop
  endfacet
  facet normal 0 0 -1
    outer loop
      vertex 0 30 0
      vertex 11.4729 20.8164 0
      vertex 9.50452 20.9795 0
    endloop
  endfacet
  facet normal 0 0 -1
    outer loop
      vertex 0 30 0
      vertex 9.50452 20.9795 0
      vertex 7.58983 20.4946 0
    endloop
  endfacet
  facet normal 0 0 -1
    outer loop
      vertex 11.4729 20.8164 0
      vertex 0 30 0
      vertex 40 30 0
    endloop
  endfacet
  facet normal 0 0 -1
    outer loop
      vertex 5.93631 19.4143 0
      vertex 0 30 0
      vertex 7.58983 20.4946 0
    endloop
  endfacet
  facet normal 0 0 -1
    outer loop
      vertex 4.72316 17.8557 0
      vertex 0 30 0
      vertex 5.93631 19.4143 0
    endloop
  endfacet
  facet normal 0 0 -1
    outer loop
      vertex 4.08183 15.9876 0
      vertex 0 30 0
      vertex 4.72316 17.8557 0
    endloop
  endfacet
  facet normal 0 0 -1
    outer loop
      vertex 0 30 0
      vertex 4.08183 15.9876 0
      vertex 0 0 0
    endloop
  endfacet
  facet normal -1 0 0
    outer loop
      vertex 0 0 0
      vertex 0 30 20
      vertex 0 30 0
    endloop
  endfacet
  facet normal -1 -0 0
    outer loop
      vertex 0 30 20
      vertex 0 0 0
      vertex 0 0 20
    endloop
  endfacet
  facet normal 0 1 -0
    outer loop
      vertex 40 30 0
      vertex 0 30 20
      vertex 40 30 20
    endloop
  endfacet
  facet normal 0 1 0
    outer loop
      vertex 0 30 20
      vertex 40 30 0
      vertex 0 30 0
    endloop
  endfacet
  facet normal 0 -1 0
    outer loop
      vertex 0 0 20
      vertex 19.0729 0 10.8532
      vertex 40 0 20
    endloop
  endfacet
  facet normal 0 -1 0
    outer loop
      vertex 0 0 20
      vertex 17.5729 0 9.76336
      vertex 19.0729 0 10.8532
    endloop
  endfacet
  facet normal 0 -1 0
    outer loop
      vertex 0 0 20
      vertex 17 0 8
      vertex 17.5729 0 9.76336
    endloop
  endfacet
  facet normal 0 -1 0
    outer loop
      vertex 0 0 0
      vertex 17 0 8
      vertex 0 0 20
    endloop
  endfacet
  facet normal 0 -1 -0
    outer loop
      vertex 19.0729 0 5.14683
      vertex 0 0 0
      vertex 20.9271 0 5.14683
    endloop
  endfacet
  facet normal 0 -1 -0
    outer loop
      vertex 17.5729 0 6.23664
      vertex 0 0 0
      vertex 19.0729 0 5.14683
    endloop
  endfacet
  facet normal 0 -1 -0
    outer loop
      vertex 17 0 8
      vertex 0 0 0
      vertex 17.5729 0 6.23664
    endloop
  endfacet
  facet normal 0 -1 0
    outer loop
      vertex 20.9271 0 10.8532
      vertex 40 0 20
      vertex 19.0729 0 10.8532
    endloop
  endfacet
  facet normal 0 -1 0
    outer loop
      vertex 22.4271 0 9.76336
      vertex 40 0 20
      vertex 20.9271 0 10.8532
    endloop
  endfacet
  facet normal 0 -1 0
    outer loop
      vertex 23 0 8
      vertex 40 0 20
      vertex 22.4271 0 9.76336
    endloop
  endfacet
  facet normal 0 -1 0
    outer loop
      vertex 40 0 0
      vertex 23 0 8
      vertex 22.4271 0 6.23664
    endloop
  endfacet
  facet normal 0 -1 0
    outer loop
      vertex 23 0 8
      vertex 40 0 0
      vertex 40 0 20
    endloop
  endfacet
  facet normal 0 -1 0
    outer loop
      vertex 20.9271 0 5.14683
      vertex 40 0 0
      vertex 22.4271 0 6.23664
    endloop
  endfacet
  facet normal 0 -1 0
    outer loop
      vertex 40 0 0
      vertex 20.9271 0 5.14683
      vertex 0 0 0
    endloop
  endfacet
  facet normal -1 0 0
    outer loop
      vertex 4.08183 14.0124 -1
      vertex 4.08183 15.9876 0
      vertex 4.08183 15.9876 -1
    endloop
  endfacet
  facet normal -1 -0 0
    outer loop
      vertex 4.08183 15.9876 0
      vertex 4.08183 14.0124 -1
      vertex 4.08183 14.0124 0
    endloop
  endfacet
  facet normal -1 0 0
    outer loop
      vertex 4.08183 14.0124 20
      vertex 4.08183 15.9876 21
      vertex 4.08183 15.9876 20
    endloop
  endfacet
  facet normal -1 -0 0
    outer loop
      vertex 4.08183 15.9876 21
      vertex 4.08183 14.0124 20
      vertex 4.08183 14.0124 21
    endloop
  endfacet
  facet normal 0.986361 0.164596 0
    outer loop
      vertex 16 15 0
      vertex 15.6749 16.9482 -1
      vertex 15.6749 16.9482 0
    endloop
  endfacet
  facet normal 0.986361 0.164596 0
    outer loop
      vertex 15.6749 16.9482 -1
      vertex 16 15 0
      vertex 16 15 -1
    endloop
  endfacet
  facet normal 0.986361 0.164596 0
    outer loop
      vertex 16 15 21
      vertex 15.6749 16.9482 20
      vertex 15.6749 16.9482 21
    endloop
  endfacet
  facet normal 0.986361 0.164596 0
    outer loop
      vertex 15.6749 16.9482 20
      vertex 16 15 21
      vertex 16 15 20
    endloop
  endfacet
  facet normal 0.879468 0.475959 0
    outer loop
      vertex 15.6749 16.9482 21
      vertex 14.7348 18.6853 20
      vertex 14.7348 18.6853 21
    endloop
  endfacet
  facet normal 0.879468 0.475959 0
    outer loop
      vertex 14.7348 18.6853 20
      vertex 15.6749 16.9482 21
      vertex 15.6749 16.9482 20
    endloop
  endfacet
  facet normal 0.879468 0.475959 0
    outer loop
      vertex 15.6749 16.9482 0
      vertex 14.7348 18.6853 -1
      vertex 14.7348 18.6853 0
    endloop
  endfacet
  facet normal 0.879468 0.475959 0
    outer loop
      vertex 14.7348 18.6853 -1
      vertex 15.6749 16.9482 0
      vertex 15.6749 16.9482 -1
    endloop
  endfacet
  facet normal 0.40169 -0.915776 0
    outer loop
      vertex 11.4729 9.1836 -1
      vertex 13.2817 9.977 0
      vertex 11.4729 9.1836 0
    endloop
  endfacet
  facet normal 0.40169 -0.915776 0
    outer loop
      vertex 13.2817 9.977 0
      vertex 11.4729 9.1836 -1
      vertex 13.2817 9.977 -1
    endloop
  endfacet
  facet normal 0.40169 -0.915776 0
    outer loop
      vertex 11.4729 9.1836 20
      vertex 13.2817 9.977 21
      vertex 11.4729 9.1836 21
    endloop
  endfacet
  facet normal 0.40169 -0.915776 0
    outer loop
      vertex 13.2817 9.977 21
      vertex 11.4729 9.1836 20
      vertex 13.2817 9.977 20
    endloop
  endfacet
  facet normal -0.245502 0.969396 0
    outer loop
      vertex 9.50452 20.9795 20
      vertex 7.58983 20.4946 21
      vertex 9.50452 20.9795 21
    endloop
  endfacet
  facet normal -0.245502 0.969396 0
    outer loop
      vertex 7.58983 20.4946 21
      vertex 9.50452 20.9795 20
      vertex 7.58983 20.4946 20
    endloop
  endfacet
  facet normal -0.245502 0.969396 0
    outer loop
      vertex 9.50452 20.9795 -1
      vertex 7.58983 20.4946 0
      vertex 9.50452 20.9795 0
    endloop
  endfacet
  facet normal -0.245502 0.969396 0
    outer loop
      vertex 7.58983 20.4946 0
      vertex 9.50452 20.9795 -1
      vertex 7.58983 20.4946 -1
    endloop
  endfacet
  facet normal 0.879468 -0.475959 0
    outer loop
      vertex 14.7348 11.3147 21
      vertex 15.6749 13.0518 20
      vertex 15.6749 13.0518 21
    endloop
  endfacet
  facet normal 0.879468 -0.475959 0
    outer loop
      vertex 15.6749 13.0518 20
      vertex 14.7348 11.3147 21
      vertex 14.7348 11.3147 20
    endloop
  endfacet
  facet normal 0.879468 -0.475959 0
    outer loop
      vertex 14.7348 11.3147 0
      vertex 15.6749 13.0518 -1
      vertex 15.6749 13.0518 0
    endloop
  endfacet
  facet normal 0.879468 -0.475959 0
    outer loop
      vertex 15.6749 13.0518 -1
      vertex 14.7348 11.3147 0
      vertex 14.7348 11.3147 -1
    endloop
  endfacet
  facet normal 0.082577 0.996585 -0
    outer loop
      vertex 11.4729 20.8164 20
      vertex 9.50452 20.9795 21
      vertex 11.4729 20.8164 21
    endloop
  endfacet
  facet normal 0.082577 0.996585 0
    outer loop
      vertex 9.50452 20.9795 21
      vertex 11.4729 20.8164 20
      vertex 9.50452 20.9795 20
    endloop
  endfacet
  facet normal 0.082577 0.996585 -0
    outer loop
      vertex 11.4729 20.8164 -1
      vertex 9.50452 20.9795 0
      vertex 11.4729 20.8164 0
    endloop
  endfacet
  facet normal 0.082577 0.996585 0
    outer loop
      vertex 9.50452 20.9795 0
      vertex 11.4729 20.8164 -1
      vertex 9.50452 20.9795 -1
    endloop
  endfacet
  facet normal -0.546949 0.837166 0
    outer loop
      vertex 7.58983 20.4946 -1
      vertex 5.93631 19.4143 0
      vertex 7.58983 20.4946 0
    endloop
  endfacet
  facet normal -0.546949 0.837166 0
    outer loop
      vertex 5.93631 19.4143 0
      vertex 7.58983 20.4946 -1
      vertex 5.93631 19.4143 -1
    endloop
  endfacet
  facet normal -0.546949 0.837166 0
    outer loop
      vertex 7.58983 20.4946 20
      vertex 5.93631 19.4143 21
      vertex 7.58983 20.4946 21
    endloop
  endfacet
  facet normal -0.546949 0.837166 0
    outer loop
      vertex 5.93631 19.4143 21
      vertex 7.58983 20.4946 20
      vertex 5.93631 19.4143 20
    endloop
  endfacet
  facet normal 0.677289 0.735717 -0
    outer loop
      vertex 14.7348 18.6853 20
      vertex 13.2817 20.023 21
      vertex 14.7348 18.6853 21
    endloop
  endfacet
  facet normal 0.677289 0.735717 0
    outer loop
      vertex 13.2817 20.023 21
      vertex 14.7348 18.6853 20
      vertex 13.2817 20.023 20
    endloop
  endfacet
  facet normal 0.677289 0.735717 -0
    outer loop
      vertex 14.7348 18.6853 -1
      vertex 13.2817 20.023 0
      vertex 14.7348 18.6853 0
    endloop
  endfacet
  facet normal 0.677289 0.735717 0
    outer loop
      vertex 13.2817 20.023 0
      vertex 14.7348 18.6853 -1
      vertex 13.2817 20.023 -1
    endloop
  endfacet
  facet normal 0.677289 -0.735717 0
    outer loop
      vertex 13.2817 9.977 -1
      vertex 14.7348 11.3147 0
      vertex 13.2817 9.977 0
    endloop
  endfacet
  facet normal 0.677289 -0.735717 0
    outer loop
      vertex 14.7348 11.3147 0
      vertex 13.2817 9.977 -1
      vertex 14.7348 11.3147 -1
    endloop
  endfacet
  facet normal 0.677289 -0.735717 0
    outer loop
      vertex 13.2817 9.977 20
      vertex 14.7348 11.3147 21
      vertex 13.2817 9.977 21
    endloop
  endfacet
  facet normal 0.677289 -0.735717 0
    outer loop
      vertex 14.7348 11.3147 21
      vertex 13.2817 9.977 20
      vertex 14.7348 11.3147 20
    endloop
  endfacet
  facet normal 0.40169 0.915776 -0
    outer loop
      vertex 13.2817 20.023 -1
      vertex 11.4729 20.8164 0
      vertex 13.2817 20.023 0
    endloop
  endfacet
  facet normal 0.40169 0.915776 0
    outer loop
      vertex 11.4729 20.8164 0
      vertex 13.2817 20.023 -1
      vertex 11.4729 20.8164 -1
    endloop
  endfacet
  facet normal 0.40169 0.915776 -0
    outer loop
      vertex 13.2817 20.023 20
      vertex 11.4729 20.8164 21
      vertex 13.2817 20.023 21
    endloop
  endfacet
  facet normal 0.40169 0.915776 0
    outer loop
      vertex 11.4729 20.8164 21
      vertex 13.2817 20.023 20
      vertex 11.4729 20.8164 20
    endloop
  endfacet
  facet normal -0.245488 -0.9694 0
    outer loop
      vertex 7.58983 9.50536 20
      vertex 9.50452 9.02049 21
      vertex 7.58983 9.50536 21
    endloop
  endfacet
  facet normal -0.245488 -0.9694 -0
    outer loop
      vertex 9.50452 9.02049 21
      vertex 7.58983 9.50536 20
      vertex 9.50452 9.02049 20
    endloop
  endfacet
  facet normal -0.245488 -0.9694 0
    outer loop
      vertex 7.58983 9.50536 -1
      vertex 9.50452 9.02049 0
      vertex 7.58983 9.50536 0
    endloop
  endfacet
  facet normal -0.245488 -0.9694 -0
    outer loop
      vertex 9.50452 9.02049 0
      vertex 7.58983 9.50536 -1
      vertex 9.50452 9.02049 -1
    endloop
  endfacet
  facet normal -0.78913 0.614226 0
    outer loop
      vertex 4.72316 17.8557 20
      vertex 5.93631 19.4143 21
      vertex 5.93631 19.4143 20
    endloop
  endfacet
  facet normal -0.78913 0.614226 0
    outer loop
      vertex 5.93631 19.4143 21
      vertex 4.72316 17.8557 20
      vertex 4.72316 17.8557 21
    endloop
  endfacet
  facet normal -0.78913 0.614226 0
    outer loop
      vertex 4.72316 17.8557 -1
      vertex 5.93631 19.4143 0
      vertex 5.93631 19.4143 -1
    endloop
  endfacet
  facet normal -0.78913 0.614226 0
    outer loop
      vertex 5.93631 19.4143 0
      vertex 4.72316 17.8557 -1
      vertex 4.72316 17.8557 0
    endloop
  endfacet
  facet normal -0.78913 -0.614226 0
    outer loop
      vertex 5.93631 10.5857 -1
      vertex 4.72316 12.1443 0
      vertex 4.72316 12.1443 -1
    endloop
  endfacet
  facet normal -0.78913 -0.614226 0
    outer loop
      vertex 4.72316 12.1443 0
      vertex 5.93631 10.5857 -1
      vertex 5.93631 10.5857 0
    endloop
  endfacet
  facet normal -0.78913 -0.614226 0
    outer loop
      vertex 5.93631 10.5857 20
      vertex 4.72316 12.1443 21
      vertex 4.72316 12.1443 20
    endloop
  endfacet
  facet normal -0.78913 -0.614226 0
    outer loop
      vertex 4.72316 12.1443 21
      vertex 5.93631 10.5857 20
      vertex 5.93631 10.5857 21
    endloop
  endfacet
  facet normal -0.945816 0.324704 0
    outer loop
      vertex 4.08183 15.9876 20
      vertex 4.72316 17.8557 21
      vertex 4.72316 17.8557 20
    endloop
  endfacet
  facet normal -0.945816 0.324704 0
    outer loop
      vertex 4.72316 17.8557 21
      vertex 4.08183 15.9876 20
      vertex 4.08183 15.9876 21
    endloop
  endfacet
  facet normal -0.945816 0.324704 0
    outer loop
      vertex 4.08183 15.9876 -1
      vertex 4.72316 17.8557 0
      vertex 4.72316 17.8557 -1
    endloop
  endfacet
  facet normal -0.945816 0.324704 0
    outer loop
      vertex 4.72316 17.8557 0
      vertex 4.08183 15.9876 -1
      vertex 4.08183 15.9876 0
    endloop
  endfacet
  facet normal 0 0 1
    outer loop
      vertex 15.6749 16.9482 21
      vertex 15.6749 13.0518 21
      vertex 16 15 21
    endloop
  endfacet
  facet normal 0 0 1
    outer loop
      vertex 14.7348 18.6853 21
      vertex 15.6749 13.0518 21
      vertex 15.6749 16.9482 21
    endloop
  endfacet
  facet normal 0 0 1
    outer loop
      vertex 14.7348 18.6853 21
      vertex 14.7348 11.3147 21
      vertex 15.6749 13.0518 21
    endloop
  endfacet
  facet normal 0 0 1
    outer loop
      vertex 13.2817 20.023 21
      vertex 14.7348 11.3147 21
      vertex 14.7348 18.6853 21
    endloop
  endfacet
  facet normal 0 0 1
    outer loop
      vertex 13.2817 20.023 21
      vertex 13.2817 9.977 21
      vertex 14.7348 11.3147 21
    endloop
  endfacet
  facet normal 0 0 1
    outer loop
      vertex 11.4729 20.8164 21
      vertex 13.2817 9.977 21
      vertex 13.2817 20.023 21
    endloop
  endfacet
  facet normal 0 0 1
    outer loop
      vertex 11.4729 20.8164 21
      vertex 11.4729 9.1836 21
      vertex 13.2817 9.977 21
    endloop
  endfacet
  facet normal 0 0 1
    outer loop
      vertex 9.50452 20.9795 21
      vertex 11.4729 9.1836 21
      vertex 11.4729 20.8164 21
    endloop
  endfacet
  facet normal 0 0 1
    outer loop
      vertex 9.50452 20.9795 21
      vertex 9.50452 9.02049 21
      vertex 11.4729 9.1836 21
    endloop
  endfacet
  facet normal -0 0 1
    outer loop
      vertex 7.58983 20.4946 21
      vertex 9.50452 9.02049 21
      vertex 9.50452 20.9795 21
    endloop
  endfacet
  facet normal 0 0 1
    outer loop
      vertex 7.58983 20.4946 21
      vertex 7.58983 9.50536 21
      vertex 9.50452 9.02049 21
    endloop
  endfacet
  facet normal -0 0 1
    outer loop
      vertex 5.93631 19.4143 21
      vertex 7.58983 9.50536 21
      vertex 7.58983 20.4946 21
    endloop
  endfacet
  facet normal 0 0 1
    outer loop
      vertex 5.93631 19.4143 21
      vertex 5.93631 10.5857 21
      vertex 7.58983 9.50536 21
    endloop
  endfacet
  facet normal -0 0 1
    outer loop
      vertex 4.72316 17.8557 21
      vertex 5.93631 10.5857 21
      vertex 5.93631 19.4143 21
    endloop
  endfacet
  facet normal 0 0 1
    outer loop
      vertex 4.72316 17.8557 21
      vertex 4.72316 12.1443 21
      vertex 5.93631 10.5857 21
    endloop
  endfacet
  facet normal -0 0 1
    outer loop
      vertex 4.08183 15.9876 21
      vertex 4.72316 12.1443 21
      vertex 4.72316 17.8557 21
    endloop
  endfacet
  facet normal 0 0 1
    outer loop
      vertex 4.72316 12.1443 21
      vertex 4.08183 15.9876 21
      vertex 4.08183 14.0124 21
    endloop
  endfacet
  facet normal -0.945816 -0.324704 0
    outer loop
      vertex 4.72316 12.1443 -1
      vertex 4.08183 14.0124 0
      vertex 4.08183 14.0124 -1
    endloop
  endfacet
  facet normal -0.945816 -0.324704 0
    outer loop
      vertex 4.08183 14.0124 0
      vertex 4.72316 12.1443 -1
      vertex 4.72316 12.1443 0
    endloop
  endfacet
  facet normal -0.945816 -0.324704 0
    outer loop
      vertex 4.72316 12.1443 20
      vertex 4.08183 14.0124 21
      vertex 4.08183 14.0124 20
    endloop
  endfacet
  facet normal -0.945816 -0.324704 0
    outer loop
      vertex 4.08183 14.0124 21
      vertex 4.72316 12.1443 20
      vertex 4.72316 12.1443 21
    endloop
  endfacet
  facet normal -0.546963 -0.837157 0
    outer loop
      vertex 5.93631 10.5857 20
      vertex 7.58983 9.50536 21
      vertex 5.93631 10.5857 21
    endloop
  endfacet
  facet normal -0.546963 -0.837157 -0
    outer loop
      vertex 7.58983 9.50536 21
      vertex 5.93631 10.5857 20
      vertex 7.58983 9.50536 20
    endloop
  endfacet
  facet normal -0.546963 -0.837157 0
    outer loop
      vertex 5.93631 10.5857 -1
      vertex 7.58983 9.50536 0
      vertex 5.93631 10.5857 0
    endloop
  endfacet
  facet normal -0.546963 -0.837157 -0
    outer loop
      vertex 7.58983 9.50536 0
      vertex 5.93631 10.5857 -1
      vertex 7.58983 9.50536 -1
    endloop
  endfacet
  facet normal 0.986361 -0.164596 0
    outer loop
      vertex 15.6749 13.0518 21
      vertex 16 15 20
      vertex 16 15 21
    endloop
  endfacet
  facet normal 0.986361 -0.164596 0
    outer loop
      vertex 16 15 20
      vertex 15.6749 13.0518 21
      vertex 15.6749 13.0518 20
    endloop
  endfacet
  facet normal 0.986361 -0.164596 0
    outer loop
      vertex 15.6749 13.0518 0
      vertex 16 15 -1
      vertex 16 15 0
    endloop
  endfacet
  facet normal 0.986361 -0.164596 0
    outer loop
      vertex 16 15 -1
      vertex 15.6749 13.0518 0
      vertex 15.6749 13.0518 -1
    endloop
  endfacet
  facet normal 0.0825821 -0.996584 0
    outer loop
      vertex 9.50452 9.02049 20
      vertex 11.4729 9.1836 21
      vertex 9.50452 9.02049 21
    endloop
  endfacet
  facet normal 0.0825821 -0.996584 0
    outer loop
      vertex 11.4729 9.1836 21
      vertex 9.50452 9.02049 20
      vertex 11.4729 9.1836 20
    endloop
  endfacet
  facet normal 0.0825821 -0.996584 0
    outer loop
      vertex 9.50452 9.02049 -1
      vertex 11.4729 9.1836 0
      vertex 9.50452 9.02049 0
    endloop
  endfacet
  facet normal 0.0825821 -0.996584 0
    outer loop
      vertex 11.4729 9.1836 0
      vertex 9.50452 9.02049 -1
      vertex 11.4729 9.1836 -1
    endloop
  endfacet
  facet normal 0 0 -1
    outer loop
      vertex 15.6749 13.0518 -1
      vertex 15.6749 16.9482 -1
      vertex 16 15 -1
    endloop
  endfacet
  facet normal 0 0 -1
    outer loop
      vertex 14.7348 11.3147 -1
      vertex 15.6749 16.9482 -1
      vertex 15.6749 13.0518 -1
    endloop
  endfacet
  facet normal 0 0 -1
    outer loop
      vertex 14.7348 11.3147 -1
      vertex 14.7348 18.6853 -1
      vertex 15.6749 16.9482 -1
    endloop
  endfacet
  facet normal 0 0 -1
    outer loop
      vertex 13.2817 9.977 -1
      vertex 14.7348 18.6853 -1
      vertex 14.7348 11.3147 -1
    endloop
  endfacet
  facet normal 0 0 -1
    outer loop
      vertex 13.2817 9.977 -1
      vertex 13.2817 20.023 -1
      vertex 14.7348 18.6853 -1
    endloop
  endfacet
  facet normal 0 0 -1
    outer loop
      vertex 11.4729 9.1836 -1
      vertex 13.2817 20.023 -1
      vertex 13.2817 9.977 -1
    endloop
  endfacet
  facet normal 0 0 -1
    outer loop
      vertex 11.4729 9.1836 -1
      vertex 11.4729 20.8164 -1
      vertex 13.2817 20.023 -1
    endloop
  endfacet
  facet normal 0 0 -1
    outer loop
      vertex 9.50452 9.02049 -1
      vertex 11.4729 20.8164 -1
      vertex 11.4729 9.1836 -1
    endloop
  endfacet
  facet normal 0 0 -1
    outer loop
      vertex 9.50452 9.02049 -1
      vertex 9.50452 20.9795 -1
      vertex 11.4729 20.8164 -1
    endloop
  endfacet
  facet normal 0 0 -1
    outer loop
      vertex 7.58983 9.50536 -1
      vertex 9.50452 20.9795 -1
      vertex 9.50452 9.02049 -1
    endloop
  endfacet
  facet normal 0 0 -1
    outer loop
      vertex 7.58983 9.50536 -1
      vertex 7.58983 20.4946 -1
      vertex 9.50452 20.9795 -1
    endloop
  endfacet
  facet normal 0 0 -1
    outer loop
      vertex 5.93631 10.5857 -1
      vertex 7.58983 20.4946 -1
      vertex 7.58983 9.50536 -1
    endloop
  endfacet
  facet normal 0 0 -1
    outer loop
      vertex 5.93631 10.5857 -1
      vertex 5.93631 19.4143 -1
      vertex 7.58983 20.4946 -1
    endloop
  endfacet
  facet normal 0 0 -1
    outer loop
      vertex 4.72316 12.1443 -1
      vertex 5.93631 19.4143 -1
      vertex 5.93631 10.5857 -1
    endloop
  endfacet
  facet normal 0 0 -1
    outer loop
      vertex 4.72316 12.1443 -1
      vertex 4.72316 17.8557 -1
      vertex 5.93631 19.4143 -1
    endloop
  endfacet
  facet normal 0 0 -1
    outer loop
      vertex 4.08183 14.0124 -1
      vertex 4.72316 17.8557 -1
      vertex 4.72316 12.1443 -1
    endloop
  endfacet
  facet normal 0 0 -1
    outer loop
      vertex 4.72316 17.8557 -1
      vertex 4.08183 14.0124 -1
      vertex 4.08183 15.9876 -1
    endloop
  endfacet
  facet normal 0 0 -1
    outer loop
      vertex 35.6749 13.0518 -1
      vertex 35.6749 16.9482 -1
      vertex 36 15 -1
    endloop
  endfacet
  facet normal 0 0 -1
    outer loop
      vertex 34.7348 11.3147 -1
      vertex 35.6749 16.9482 -1
      vertex 35.6749 13.0518 -1
    endloop
  endfacet
  facet normal 0 0 -1
    outer loop
      vertex 34.7348 11.3147 -1
      vertex 34.7348 18.6853 -1
      vertex 35.6749 16.9482 -1
    endloop
  endfacet
  facet normal 0 0 -1
    outer loop
      vertex 33.2817 9.977 -1
      vertex 34.7348 18.6853 -1
      vertex 34.7348 11.3147 -1
    endloop
  endfacet
  facet normal 0 0 -1
    outer loop
      vertex 33.2817 9.977 -1
      vertex 33.2817 20.023 -1
      vertex 34.7348 18.6853 -1
    endloop
  endfacet
  facet normal 0 0 -1
    outer loop
      vertex 31.4729 9.1836 -1
      vertex 33.2817 20.023 -1
      vertex 33.2817 9.977 -1
    endloop
  endfacet
  facet normal 0 0 -1
    outer loop
      vertex 31.4729 9.1836 -1
      vertex 31.4729 20.8164 -1
      vertex 33.2817 20.023 -1
    endloop
  endfacet
  facet normal 0 0 -1
    outer loop
      vertex 29.5045 9.02049 -1
      vertex 31.4729 20.8164 -1
      vertex 31.4729 9.1836 -1
    endloop
  endfacet
  facet normal 0 0 -1
    outer loop
      vertex 29.5045 9.02049 -1
      vertex 29.5045 20.9795 -1
      vertex 31.4729 20.8164 -1
    endloop
  endfacet
  facet normal 0 0 -1
    outer loop
      vertex 27.5898 9.50536 -1
      vertex 29.5045 20.9795 -1
      vertex 29.5045 9.02049 -1
    endloop
  endfacet
  facet normal 0 0 -1
    outer loop
      vertex 27.5898 9.50536 -1
      vertex 27.5898 20.4946 -1
      vertex 29.5045 20.9795 -1
    endloop
  endfacet
  facet normal 0 0 -1
    outer loop
      vertex 25.9363 10.5857 -1
      vertex 27.5898 20.4946 -1
      vertex 27.5898 9.50536 -1
    endloop
  endfacet
  facet normal 0 0 -1
    outer loop
      vertex 25.9363 10.5857 -1
      vertex 25.9363 19.4143 -1
      vertex 27.5898 20.4946 -1
    endloop
  endfacet
  facet normal 0 0 -1
    outer loop
      vertex 24.7232 12.1443 -1
      vertex 25.9363 19.4143 -1
      vertex 25.9363 10.5857 -1
    endloop
  endfacet
  facet normal 0 0 -1
    outer loop
      vertex 24.7232 12.1443 -1
      vertex 24.7232 17.8557 -1
      vertex 25.9363 19.4143 -1
    endloop
  endfacet
  facet normal 0 0 -1
    outer loop
      vertex 24.0818 14.0124 -1
      vertex 24.7232 17.8557 -1
      vertex 24.7232 12.1443 -1
    endloop
  endfacet
  facet normal 0 0 -1
    outer loop
      vertex 24.7232 17.8557 -1
      vertex 24.0818 14.0124 -1
      vertex 24.0818 15.9876 -1
    endloop
  endfacet
  facet normal 0.879468 0.475959 0
    outer loop
      vertex 35.6749 16.9482 21
      vertex 34.7348 18.6853 20
      vertex 34.7348 18.6853 21
    endloop
  endfacet
  facet normal 0.879468 0.475959 0
    outer loop
      vertex 34.7348 18.6853 20
      vertex 35.6749 16.9482 21
      vertex 35.6749 16.9482 20
    endloop
  endfacet
  facet normal 0.879468 0.475959 0
    outer loop
      vertex 35.6749 16.9482 0
      vertex 34.7348 18.6853 -1
      vertex 34.7348 18.6853 0
    endloop
  endfacet
  facet normal 0.879468 0.475959 0
    outer loop
      vertex 34.7348 18.6853 -1
      vertex 35.6749 16.9482 0
      vertex 35.6749 16.9482 -1
    endloop
  endfacet
  facet normal 0.986361 0.164596 0
    outer loop
      vertex 36 15 0
      vertex 35.6749 16.9482 -1
      vertex 35.6749 16.9482 0
    endloop
  endfacet
  facet normal 0.986361 0.164596 0
    outer loop
      vertex 35.6749 16.9482 -1
      vertex 36 15 0
      vertex 36 15 -1
    endloop
  endfacet
  facet normal 0.986361 0.164596 0
    outer loop
      vertex 36 15 21
      vertex 35.6749 16.9482 20
      vertex 35.6749 16.9482 21
    endloop
  endfacet
  facet normal 0.986361 0.164596 0
    outer loop
      vertex 35.6749 16.9482 20
      vertex 36 15 21
      vertex 36 15 20
    endloop
  endfacet
  facet normal 0.677289 0.735717 -0
    outer loop
      vertex 34.7348 18.6853 20
      vertex 33.2817 20.023 21
      vertex 34.7348 18.6853 21
    endloop
  endfacet
  facet normal 0.677289 0.735717 0
    outer loop
      vertex 33.2817 20.023 21
      vertex 34.7348 18.6853 20
      vertex 33.2817 20.023 20
    endloop
  endfacet
  facet normal 0.677289 0.735717 -0
    outer loop
      vertex 34.7348 18.6853 -1
      vertex 33.2817 20.023 0
      vertex 34.7348 18.6853 0
    endloop
  endfacet
  facet normal 0.677289 0.735717 0
    outer loop
      vertex 33.2817 20.023 0
      vertex 34.7348 18.6853 -1
      vertex 33.2817 20.023 -1
    endloop
  endfacet
  facet normal -0.945805 0.324736 0
    outer loop
      vertex 24.0818 15.9876 -1
      vertex 24.7232 17.8557 0
      vertex 24.7232 17.8557 -1
    endloop
  endfacet
  facet normal -0.945805 0.324736 0
    outer loop
      vertex 24.7232 17.8557 0
      vertex 24.0818 15.9876 -1
      vertex 24.0818 15.9876 0
    endloop
  endfacet
  facet normal -0.945805 0.324736 0
    outer loop
      vertex 24.0818 15.9876 20
      vertex 24.7232 17.8557 21
      vertex 24.7232 17.8557 20
    endloop
  endfacet
  facet normal -0.945805 0.324736 0
    outer loop
      vertex 24.7232 17.8557 21
      vertex 24.0818 15.9876 20
      vertex 24.0818 15.9876 21
    endloop
  endfacet
  facet normal 0.40169 -0.915776 0
    outer loop
      vertex 31.4729 9.1836 -1
      vertex 33.2817 9.977 0
      vertex 31.4729 9.1836 0
    endloop
  endfacet
  facet normal 0.40169 -0.915776 0
    outer loop
      vertex 33.2817 9.977 0
      vertex 31.4729 9.1836 -1
      vertex 33.2817 9.977 -1
    endloop
  endfacet
  facet normal 0.40169 -0.915776 0
    outer loop
      vertex 31.4729 9.1836 20
      vertex 33.2817 9.977 21
      vertex 31.4729 9.1836 21
    endloop
  endfacet
  facet normal 0.40169 -0.915776 0
    outer loop
      vertex 33.2817 9.977 21
      vertex 31.4729 9.1836 20
      vertex 33.2817 9.977 20
    endloop
  endfacet
  facet normal -0.245486 -0.9694 0
    outer loop
      vertex 27.5898 9.50536 20
      vertex 29.5045 9.02049 21
      vertex 27.5898 9.50536 21
    endloop
  endfacet
  facet normal -0.245486 -0.9694 -0
    outer loop
      vertex 29.5045 9.02049 21
      vertex 27.5898 9.50536 20
      vertex 29.5045 9.02049 20
    endloop
  endfacet
  facet normal -0.245486 -0.9694 0
    outer loop
      vertex 27.5898 9.50536 -1
      vertex 29.5045 9.02049 0
      vertex 27.5898 9.50536 0
    endloop
  endfacet
  facet normal -0.245486 -0.9694 -0
    outer loop
      vertex 29.5045 9.02049 0
      vertex 27.5898 9.50536 -1
      vertex 29.5045 9.02049 -1
    endloop
  endfacet
  facet normal 0.40169 0.915776 -0
    outer loop
      vertex 33.2817 20.023 -1
      vertex 31.4729 20.8164 0
      vertex 33.2817 20.023 0
    endloop
  endfacet
  facet normal 0.40169 0.915776 0
    outer loop
      vertex 31.4729 20.8164 0
      vertex 33.2817 20.023 -1
      vertex 31.4729 20.8164 -1
    endloop
  endfacet
  facet normal 0.40169 0.915776 -0
    outer loop
      vertex 33.2817 20.023 20
      vertex 31.4729 20.8164 21
      vertex 33.2817 20.023 21
    endloop
  endfacet
  facet normal 0.40169 0.915776 0
    outer loop
      vertex 31.4729 20.8164 21
      vertex 33.2817 20.023 20
      vertex 31.4729 20.8164 20
    endloop
  endfacet
  facet normal 0.0825762 0.996585 -0
    outer loop
      vertex 31.4729 20.8164 -1
      vertex 29.5045 20.9795 0
      vertex 31.4729 20.8164 0
    endloop
  endfacet
  facet normal 0.0825762 0.996585 0
    outer loop
      vertex 29.5045 20.9795 0
      vertex 31.4729 20.8164 -1
      vertex 29.5045 20.9795 -1
    endloop
  endfacet
  facet normal 0.0825762 0.996585 -0
    outer loop
      vertex 31.4729 20.8164 20
      vertex 29.5045 20.9795 21
      vertex 31.4729 20.8164 21
    endloop
  endfacet
  facet normal 0.0825762 0.996585 0
    outer loop
      vertex 29.5045 20.9795 21
      vertex 31.4729 20.8164 20
      vertex 29.5045 20.9795 20
    endloop
  endfacet
  facet normal -0.546953 0.837163 0
    outer loop
      vertex 27.5898 20.4946 20
      vertex 25.9363 19.4143 21
      vertex 27.5898 20.4946 21
    endloop
  endfacet
  facet normal -0.546953 0.837163 0
    outer loop
      vertex 25.9363 19.4143 21
      vertex 27.5898 20.4946 20
      vertex 25.9363 19.4143 20
    endloop
  endfacet
  facet normal -0.546953 0.837163 0
    outer loop
      vertex 27.5898 20.4946 -1
      vertex 25.9363 19.4143 0
      vertex 27.5898 20.4946 0
    endloop
  endfacet
  facet normal -0.546953 0.837163 0
    outer loop
      vertex 25.9363 19.4143 0
      vertex 27.5898 20.4946 -1
      vertex 25.9363 19.4143 -1
    endloop
  endfacet
  facet normal -0.245501 0.969396 0
    outer loop
      vertex 29.5045 20.9795 -1
      vertex 27.5898 20.4946 0
      vertex 29.5045 20.9795 0
    endloop
  endfacet
  facet normal -0.245501 0.969396 0
    outer loop
      vertex 27.5898 20.4946 0
      vertex 29.5045 20.9795 -1
      vertex 27.5898 20.4946 -1
    endloop
  endfacet
  facet normal -0.245501 0.969396 0
    outer loop
      vertex 29.5045 20.9795 20
      vertex 27.5898 20.4946 21
      vertex 29.5045 20.9795 21
    endloop
  endfacet
  facet normal -0.245501 0.969396 0
    outer loop
      vertex 27.5898 20.4946 21
      vertex 29.5045 20.9795 20
      vertex 27.5898 20.4946 20
    endloop
  endfacet
  facet normal -0.546968 -0.837154 0
    outer loop
      vertex 25.9363 10.5857 20
      vertex 27.5898 9.50536 21
      vertex 25.9363 10.5857 21
    endloop
  endfacet
  facet normal -0.546968 -0.837154 -0
    outer loop
      vertex 27.5898 9.50536 21
      vertex 25.9363 10.5857 20
      vertex 27.5898 9.50536 20
    endloop
  endfacet
  facet normal -0.546968 -0.837154 0
    outer loop
      vertex 25.9363 10.5857 -1
      vertex 27.5898 9.50536 0
      vertex 25.9363 10.5857 0
    endloop
  endfacet
  facet normal -0.546968 -0.837154 -0
    outer loop
      vertex 27.5898 9.50536 0
      vertex 25.9363 10.5857 -1
      vertex 27.5898 9.50536 -1
    endloop
  endfacet
  facet normal -0.789142 -0.61421 0
    outer loop
      vertex 25.9363 10.5857 -1
      vertex 24.7232 12.1443 0
      vertex 24.7232 12.1443 -1
    endloop
  endfacet
  facet normal -0.789142 -0.61421 0
    outer loop
      vertex 24.7232 12.1443 0
      vertex 25.9363 10.5857 -1
      vertex 25.9363 10.5857 0
    endloop
  endfacet
  facet normal -0.789142 -0.61421 0
    outer loop
      vertex 25.9363 10.5857 20
      vertex 24.7232 12.1443 21
      vertex 24.7232 12.1443 20
    endloop
  endfacet
  facet normal -0.789142 -0.61421 0
    outer loop
      vertex 24.7232 12.1443 21
      vertex 25.9363 10.5857 20
      vertex 25.9363 10.5857 21
    endloop
  endfacet
  facet normal 0.986361 -0.164596 0
    outer loop
      vertex 35.6749 13.0518 21
      vertex 36 15 20
      vertex 36 15 21
    endloop
  endfacet
  facet normal 0.986361 -0.164596 0
    outer loop
      vertex 36 15 20
      vertex 35.6749 13.0518 21
      vertex 35.6749 13.0518 20
    endloop
  endfacet
  facet normal 0.986361 -0.164596 0
    outer loop
      vertex 35.6749 13.0518 0
      vertex 36 15 -1
      vertex 36 15 0
    endloop
  endfacet
  facet normal 0.986361 -0.164596 0
    outer loop
      vertex 36 15 -1
      vertex 35.6749 13.0518 0
      vertex 35.6749 13.0518 -1
    endloop
  endfacet
  facet normal -0.945805 -0.324736 0
    outer loop
      vertex 24.7232 12.1443 -1
      vertex 24.0818 14.0124 0
      vertex 24.0818 14.0124 -1
    endloop
  endfacet
  facet normal -0.945805 -0.324736 0
    outer loop
      vertex 24.0818 14.0124 0
      vertex 24.7232 12.1443 -1
      vertex 24.7232 12.1443 0
    endloop
  endfacet
  facet normal -0.945805 -0.324736 0
    outer loop
      vertex 24.7232 12.1443 20
      vertex 24.0818 14.0124 21
      vertex 24.0818 14.0124 20
    endloop
  endfacet
  facet normal -0.945805 -0.324736 0
    outer loop
      vertex 24.0818 14.0124 21
      vertex 24.7232 12.1443 20
      vertex 24.7232 12.1443 21
    endloop
  endfacet
  facet normal 0.0825812 -0.996584 0
    outer loop
      vertex 29.5045 9.02049 20
      vertex 31.4729 9.1836 21
      vertex 29.5045 9.02049 21
    endloop
  endfacet
  facet normal 0.0825812 -0.996584 0
    outer loop
      vertex 31.4729 9.1836 21
      vertex 29.5045 9.02049 20
      vertex 31.4729 9.1836 20
    endloop
  endfacet
  facet normal 0.0825812 -0.996584 0
    outer loop
      vertex 29.5045 9.02049 -1
      vertex 31.4729 9.1836 0
      vertex 29.5045 9.02049 0
    endloop
  endfacet
  facet normal 0.0825812 -0.996584 0
    outer loop
      vertex 31.4729 9.1836 0
      vertex 29.5045 9.02049 -1
      vertex 31.4729 9.1836 -1
    endloop
  endfacet
  facet normal -1 0 0
    outer loop
      vertex 24.0818 14.0124 -1
      vertex 24.0818 15.9876 0
      vertex 24.0818 15.9876 -1
    endloop
  endfacet
  facet normal -1 -0 0
    outer loop
      vertex 24.0818 15.9876 0
      vertex 24.0818 14.0124 -1
      vertex 24.0818 14.0124 0
    endloop
  endfacet
  facet normal -1 0 0
    outer loop
      vertex 24.0818 14.0124 20
      vertex 24.0818 15.9876 21
      vertex 24.0818 15.9876 20
    endloop
  endfacet
  facet normal -1 -0 0
    outer loop
      vertex 24.0818 15.9876 21
      vertex 24.0818 14.0124 20
      vertex 24.0818 14.0124 21
    endloop
  endfacet
  facet normal 0.879468 -0.475959 0
    outer loop
      vertex 34.7348 11.3147 21
      vertex 35.6749 13.0518 20
      vertex 35.6749 13.0518 21
    endloop
  endfacet
  facet normal 0.879468 -0.475959 0
    outer loop
      vertex 35.6749 13.0518 20
      vertex 34.7348 11.3147 21
      vertex 34.7348 11.3147 20
    endloop
  endfacet
  facet normal 0.879468 -0.475959 0
    outer loop
      vertex 34.7348 11.3147 0
      vertex 35.6749 13.0518 -1
      vertex 35.6749 13.0518 0
    endloop
  endfacet
  facet normal 0.879468 -0.475959 0
    outer loop
      vertex 35.6749 13.0518 -1
      vertex 34.7348 11.3147 0
      vertex 34.7348 11.3147 -1
    endloop
  endfacet
  facet normal 0.677289 -0.735717 0
    outer loop
      vertex 33.2817 9.977 -1
      vertex 34.7348 11.3147 0
      vertex 33.2817 9.977 0
    endloop
  endfacet
  facet normal 0.677289 -0.735717 0
    outer loop
      vertex 34.7348 11.3147 0
      vertex 33.2817 9.977 -1
      vertex 34.7348 11.3147 -1
    endloop
  endfacet
  facet normal 0.677289 -0.735717 0
    outer loop
      vertex 33.2817 9.977 20
      vertex 34.7348 11.3147 21
      vertex 33.2817 9.977 21
    endloop
  endfacet
  facet normal 0.677289 -0.735717 0
    outer loop
      vertex 34.7348 11.3147 21
      vertex 33.2817 9.977 20
      vertex 34.7348 11.3147 20
    endloop
  endfacet
  facet normal -0.789142 0.61421 0
    outer loop
      vertex 24.7232 17.8557 20
      vertex 25.9363 19.4143 21
      vertex 25.9363 19.4143 20
    endloop
  endfacet
  facet normal -0.789142 0.61421 0
    outer loop
      vertex 25.9363 19.4143 21
      vertex 24.7232 17.8557 20
      vertex 24.7232 17.8557 21
    endloop
  endfacet
  facet normal -0.789142 0.61421 0
    outer loop
      vertex 24.7232 17.8557 -1
      vertex 25.9363 19.4143 0
      vertex 25.9363 19.4143 -1
    endloop
  endfacet
  facet normal -0.789142 0.61421 0
    outer loop
      vertex 25.9363 19.4143 0
      vertex 24.7232 17.8557 -1
      vertex 24.7232 17.8557 0
    endloop
  endfacet
  facet normal 0 0 1
    outer loop
      vertex 35.6749 16.9482 21
      vertex 35.6749 13.0518 21
      vertex 36 15 21
    endloop
  endfacet
  facet normal 0 0 1
    outer loop
      vertex 34.7348 18.6853 21
      vertex 35.6749 13.0518 21
      vertex 35.6749 16.9482 21
    endloop
  endfacet
  facet normal 0 0 1
    outer loop
      vertex 34.7348 18.6853 21
      vertex 34.7348 11.3147 21
      vertex 35.6749 13.0518 21
    endloop
  endfacet
  facet normal 0 0 1
    outer loop
      vertex 33.2817 20.023 21
      vertex 34.7348 11.3147 21
      vertex 34.7348 18.6853 21
    endloop
  endfacet
  facet normal 0 0 1
    outer loop
      vertex 33.2817 20.023 21
      vertex 33.2817 9.977 21
      vertex 34.7348 11.3147 21
    endloop
  endfacet
  facet normal 0 0 1
    outer loop
      vertex 31.4729 20.8164 21
      vertex 33.2817 9.977 21
      vertex 33.2817 20.023 21
    endloop
  endfacet
  facet normal 0 0 1
    outer loop
      vertex 31.4729 20.8164 21
      vertex 31.4729 9.1836 21
      vertex 33.2817 9.977 21
    endloop
  endfacet
  facet normal 0 0 1
    outer loop
      vertex 29.5045 20.9795 21
      vertex 31.4729 9.1836 21
      vertex 31.4729 20.8164 21
    endloop
  endfacet
  facet normal 0 0 1
    outer loop
      vertex 29.5045 20.9795 21
      vertex 29.5045 9.02049 21
      vertex 31.4729 9.1836 21
    endloop
  endfacet
  facet normal -0 0 1
    outer loop
      vertex 27.5898 20.4946 21
      vertex 29.5045 9.02049 21
      vertex 29.5045 20.9795 21
    endloop
  endfacet
  facet normal 0 0 1
    outer loop
      vertex 27.5898 20.4946 21
      vertex 27.5898 9.50536 21
      vertex 29.5045 9.02049 21
    endloop
  endfacet
  facet normal -0 0 1
    outer loop
      vertex 25.9363 19.4143 21
      vertex 27.5898 9.50536 21
      vertex 27.5898 20.4946 21
    endloop
  endfacet
  facet normal 0 0 1
    outer loop
      vertex 25.9363 19.4143 21
      vertex 25.9363 10.5857 21
      vertex 27.5898 9.50536 21
    endloop
  endfacet
  facet normal -0 0 1
    outer loop
      vertex 24.7232 17.8557 21
      vertex 25.9363 10.5857 21
      vertex 25.9363 19.4143 21
    endloop
  endfacet
  facet normal 0 0 1
    outer loop
      vertex 24.7232 17.8557 21
      vertex 24.7232 12.1443 21
      vertex 25.9363 10.5857 21
    endloop
  endfacet
  facet normal -0 0 1
    outer loop
      vertex 24.0818 15.9876 21
      vertex 24.7232 12.1443 21
      vertex 24.7232 17.8557 21
    endloop
  endfacet
  facet normal 0 0 1
    outer loop
      vertex 24.7232 12.1443 21
      vertex 24.0818 15.9876 21
      vertex 24.0818 14.0124 21
    endloop
  endfacet
  facet normal -0.95114 0.308761 0
    outer loop
      vertex 17.5729 16.7634 20
      vertex 17.4549 16.3999 29.4961
      vertex 17.5729 16.7634 29.5792
    endloop
  endfacet
  facet normal -0.951024 0.309116 1.50384e-05
    outer loop
      vertex 17.5729 16.7634 20
      vertex 17.2224 15.6846 29.3325
      vertex 17.4549 16.3999 29.4961
    endloop
  endfacet
  facet normal -0.951067 0.308986 -1.57077e-06
    outer loop
      vertex 17 15 20
      vertex 17.2224 15.6846 29.3325
      vertex 17.5729 16.7634 20
    endloop
  endfacet
  facet normal -0.951073 0.308967 0
    outer loop
      vertex 17.2224 15.6846 29.3325
      vertex 17 15 20
      vertex 17 15 29.6198
    endloop
  endfacet
  facet normal -0.587791 -0.809013 -0
    outer loop
      vertex 17.5729 13.2366 29.5792
      vertex 17.5729 13.2366 20
      vertex 17.8128 13.0623 29.4094
    endloop
  endfacet
  facet normal -0.587745 -0.809046 -1.79114e-06
    outer loop
      vertex 17.5729 13.2366 20
      vertex 18.3875 12.6448 29.4316
      vertex 17.8128 13.0623 29.4094
    endloop
  endfacet
  facet normal -0.58778 -0.809021 2.92102e-06
    outer loop
      vertex 19.0729 12.1468 20
      vertex 18.3875 12.6448 29.4316
      vertex 17.5729 13.2366 20
    endloop
  endfacet
  facet normal -0.587788 -0.809015 2.09633e-06
    outer loop
      vertex 18.3875 12.6448 29.4316
      vertex 19.0729 12.1468 20
      vertex 18.9514 12.2351 29.4534
    endloop
  endfacet
  facet normal -0.587895 -0.808938 0
    outer loop
      vertex 18.9514 12.2351 29.4534
      vertex 19.0729 12.1468 20
      vertex 19.0729 12.1468 29.5476
    endloop
  endfacet
  facet normal 0.587896 0.808936 1.88061e-05
    outer loop
      vertex 22.1355 16.9751 29.5013
      vertex 22.4271 16.7634 20
      vertex 21.6213 17.3488 29.3242
    endloop
  endfacet
  facet normal 0.587495 0.809228 -0
    outer loop
      vertex 22.4271 16.7634 20
      vertex 22.1355 16.9751 29.5013
      vertex 22.4271 16.7634 29.6017
    endloop
  endfacet
  facet normal 0.587698 0.80908 1.28851e-05
    outer loop
      vertex 20.9271 17.8532 20
      vertex 21.1272 17.7077 29.5313
      vertex 21.6213 17.3488 29.3242
    endloop
  endfacet
  facet normal 0.58778 0.809021 3.51922e-06
    outer loop
      vertex 20.9271 17.8532 20
      vertex 21.6213 17.3488 29.3242
      vertex 22.4271 16.7634 20
    endloop
  endfacet
  facet normal 0.5881 0.808789 0
    outer loop
      vertex 21.1272 17.7077 29.5313
      vertex 20.9271 17.8532 20
      vertex 20.9271 17.8532 29.6153
    endloop
  endfacet
  facet normal 0.951133 0.308783 0
    outer loop
      vertex 22.5629 16.3451 29.3749
      vertex 22.4271 16.7634 20
      vertex 22.4271 16.7634 29.6017
    endloop
  endfacet
  facet normal 0.951054 0.309024 3.95699e-06
    outer loop
      vertex 23 15 20
      vertex 22.5629 16.3451 29.3749
      vertex 22.7768 15.6868 29.4397
    endloop
  endfacet
  facet normal 0.951038 0.309074 -0
    outer loop
      vertex 23 15 20
      vertex 22.7768 15.6868 29.4397
      vertex 23 15 29.5072
    endloop
  endfacet
  facet normal 0.951067 0.308986 1.00303e-05
    outer loop
      vertex 22.5629 16.3451 29.3749
      vertex 23 15 20
      vertex 22.4271 16.7634 20
    endloop
  endfacet
  facet normal 0 1 0
    outer loop
      vertex 20.9271 17.8532 29.6153
      vertex 20.9271 17.8532 20
      vertex 20.3464 17.8532 29.3494
    endloop
  endfacet
  facet normal 0 1 0
    outer loop
      vertex 19.0729 17.8532 20
      vertex 20.3464 17.8532 29.3494
      vertex 20.9271 17.8532 20
    endloop
  endfacet
  facet normal 0 1 0
    outer loop
      vertex 20.3464 17.8532 29.3494
      vertex 19.0729 17.8532 20
      vertex 19.6675 17.8532 29.4551
    endloop
  endfacet
  facet normal 0 1 0
    outer loop
      vertex 19.6675 17.8532 29.4551
      vertex 19.0729 17.8532 20
      vertex 19.0729 17.8532 29.5476
    endloop
  endfacet
  facet normal 0.5881 -0.808789 0
    outer loop
      vertex 20.9271 12.1468 20
      vertex 21.1272 12.2923 29.5313
      vertex 20.9271 12.1468 29.6153
    endloop
  endfacet
  facet normal 0.587698 -0.80908 1.28851e-05
    outer loop
      vertex 21.1272 12.2923 29.5313
      vertex 20.9271 12.1468 20
      vertex 21.6213 12.6512 29.3242
    endloop
  endfacet
  facet normal 0.58778 -0.809021 3.51922e-06
    outer loop
      vertex 22.4271 13.2366 20
      vertex 21.6213 12.6512 29.3242
      vertex 20.9271 12.1468 20
    endloop
  endfacet
  facet normal 0.587896 -0.808936 1.88061e-05
    outer loop
      vertex 21.6213 12.6512 29.3242
      vertex 22.4271 13.2366 20
      vertex 22.1355 13.0249 29.5013
    endloop
  endfacet
  facet normal 0.587495 -0.809228 0
    outer loop
      vertex 22.1355 13.0249 29.5013
      vertex 22.4271 13.2366 20
      vertex 22.4271 13.2366 29.6017
    endloop
  endfacet
  facet normal 0 -1 -0
    outer loop
      vertex 19.6675 12.1468 29.4551
      vertex 19.0729 12.1468 20
      vertex 20.3464 12.1468 29.3494
    endloop
  endfacet
  facet normal 0 -1 0
    outer loop
      vertex 19.0729 12.1468 20
      vertex 19.6675 12.1468 29.4551
      vertex 19.0729 12.1468 29.5476
    endloop
  endfacet
  facet normal 0 -1 0
    outer loop
      vertex 20.9271 12.1468 20
      vertex 20.3464 12.1468 29.3494
      vertex 19.0729 12.1468 20
    endloop
  endfacet
  facet normal 0 -1 0
    outer loop
      vertex 20.3464 12.1468 29.3494
      vertex 20.9271 12.1468 20
      vertex 20.9271 12.1468 29.6153
    endloop
  endfacet
  facet normal -0.587745 0.809046 6.86168e-06
    outer loop
      vertex 18.3875 17.3552 29.4316
      vertex 19.0729 17.8532 20
      vertex 17.8128 16.9377 29.4094
    endloop
  endfacet
  facet normal -0.587788 0.809015 2.09633e-06
    outer loop
      vertex 18.9514 17.7649 29.4534
      vertex 19.0729 17.8532 20
      vertex 18.3875 17.3552 29.4316
    endloop
  endfacet
  facet normal -0.587895 0.808938 0
    outer loop
      vertex 19.0729 17.8532 20
      vertex 18.9514 17.7649 29.4534
      vertex 19.0729 17.8532 29.5476
    endloop
  endfacet
  facet normal -0.58778 0.809021 -4.00094e-07
    outer loop
      vertex 17.5729 16.7634 20
      vertex 17.8128 16.9377 29.4094
      vertex 19.0729 17.8532 20
    endloop
  endfacet
  facet normal -0.587791 0.809013 0
    outer loop
      vertex 17.8128 16.9377 29.4094
      vertex 17.5729 16.7634 20
      vertex 17.5729 16.7634 29.5792
    endloop
  endfacet
  facet normal 0.951038 -0.309074 0
    outer loop
      vertex 22.7768 14.3132 29.4397
      vertex 23 15 20
      vertex 23 15 29.5072
    endloop
  endfacet
  facet normal 0.951054 -0.309024 3.95699e-06
    outer loop
      vertex 22.5629 13.6549 29.3749
      vertex 23 15 20
      vertex 22.7768 14.3132 29.4397
    endloop
  endfacet
  facet normal 0.951133 -0.308783 0
    outer loop
      vertex 22.4271 13.2366 20
      vertex 22.5629 13.6549 29.3749
      vertex 22.4271 13.2366 29.6017
    endloop
  endfacet
  facet normal 0.951067 -0.308986 1.00303e-05
    outer loop
      vertex 22.5629 13.6549 29.3749
      vertex 22.4271 13.2366 20
      vertex 23 15 20
    endloop
  endfacet
  facet normal -0.951073 -0.308967 0
    outer loop
      vertex 17 15 20
      vertex 17.2224 14.3154 29.3325
      vertex 17 15 29.6198
    endloop
  endfacet
  facet normal -0.951067 -0.308986 -1.57077e-06
    outer loop
      vertex 17.5729 13.2366 20
      vertex 17.2224 14.3154 29.3325
      vertex 17 15 20
    endloop
  endfacet
  facet normal -0.951024 -0.309116 1.50384e-05
    outer loop
      vertex 17.2224 14.3154 29.3325
      vertex 17.5729 13.2366 20
      vertex 17.4549 13.6001 29.4961
    endloop
  endfacet
  facet normal -0.95114 -0.308761 0
    outer loop
      vertex 17.4549 13.6001 29.4961
      vertex 17.5729 13.2366 20
      vertex 17.5729 13.2366 29.5792
    endloop
  endfacet
  facet normal -0.864462 -0.453751 0.216372
    outer loop
      vertex 17.3025 12.6102 33.7355
      vertex 16.1162 14.0427 32
      vertex 17.006 12.3475 32
    endloop
  endfacet
  facet normal -0.393435 0.206522 0.895856
    outer loop
      vertex 19.3338 15.5902 35.8997
      vertex 17.5785 15.5968 35.1273
      vertex 19.1358 15.213 35.8997
    endloop
  endfacet
  facet normal 0.157601 -0.415436 0.895865
    outer loop
      vertex 20.5056 14.2675 35.8997
      vertex 20.1073 14.1164 35.8997
      vertex 21.4167 12.9475 35.1273
    endloop
  endfacet
  facet normal 0.431424 0.106349 0.895859
    outer loop
      vertex 22.2083 16.159 35.1273
      vertex 20.8901 15 35.8997
      vertex 22.494 15 35.1273
    endloop
  endfacet
  facet normal -0.252404 -0.365673 0.895866
    outer loop
      vertex 19.3338 14.4098 35.8997
      vertex 19.1156 12.6681 35.1273
      vertex 19.6844 14.1678 35.8997
    endloop
  endfacet
  facet normal 0.730782 -0.647403 -0.216394
    outer loop
      vertex 22.2723 11.7081 32
      vertex 22.0472 12.0341 30.2645
      vertex 23.5418 13.1411 32
    endloop
  endfacet
  facet normal 0.947945 -0.233647 -0.216353
    outer loop
      vertex 24 15 32
      vertex 23.1911 13.3252 30.2645
      vertex 23.6039 15 30.2645
    endloop
  endfacet
  facet normal 0 0 1
    outer loop
      vertex 20.7881 15.4136 35.8997
      vertex 20.7881 14.5864 35.8997
      vertex 20.8901 15 35.8997
    endloop
  endfacet
  facet normal 0 0 1
    outer loop
      vertex 20.5056 15.7325 35.8997
      vertex 20.7881 14.5864 35.8997
      vertex 20.7881 15.4136 35.8997
    endloop
  endfacet
  facet normal 0 0 1
    outer loop
      vertex 20.5056 15.7325 35.8997
      vertex 20.5056 14.2675 35.8997
      vertex 20.7881 14.5864 35.8997
    endloop
  endfacet
  facet normal 0 0 1
    outer loop
      vertex 20.1073 15.8836 35.8997
      vertex 20.5056 14.2675 35.8997
      vertex 20.5056 15.7325 35.8997
    endloop
  endfacet
  facet normal 0 0 1
    outer loop
      vertex 20.1073 15.8836 35.8997
      vertex 20.1073 14.1164 35.8997
      vertex 20.5056 14.2675 35.8997
    endloop
  endfacet
  facet normal -0 0 1
    outer loop
      vertex 19.6844 15.8322 35.8997
      vertex 20.1073 14.1164 35.8997
      vertex 20.1073 15.8836 35.8997
    endloop
  endfacet
  facet normal 0 0 1
    outer loop
      vertex 19.6844 15.8322 35.8997
      vertex 19.6844 14.1678 35.8997
      vertex 20.1073 14.1164 35.8997
    endloop
  endfacet
  facet normal -0 0 1
    outer loop
      vertex 19.3338 15.5902 35.8997
      vertex 19.6844 14.1678 35.8997
      vertex 19.6844 15.8322 35.8997
    endloop
  endfacet
  facet normal 0 0 1
    outer loop
      vertex 19.3338 15.5902 35.8997
      vertex 19.3338 14.4098 35.8997
      vertex 19.6844 14.1678 35.8997
    endloop
  endfacet
  facet normal -0 0 1
    outer loop
      vertex 19.1358 15.213 35.8997
      vertex 19.3338 14.4098 35.8997
      vertex 19.3338 15.5902 35.8997
    endloop
  endfacet
  facet normal 0 0 1
    outer loop
      vertex 19.3338 14.4098 35.8997
      vertex 19.1358 15.213 35.8997
      vertex 19.1358 14.787 35.8997
    endloop
  endfacet
  facet normal -0.864458 -0.453765 -0.216357
    outer loop
      vertex 17.3025 12.6102 30.2645
      vertex 16.1162 14.0427 32
      vertex 16.5008 14.1375 30.2645
    endloop
  endfacet
  facet normal -0.11765 0.969201 -0.216351
    outer loop
      vertex 20.4344 18.5776 30.2645
      vertex 18.5816 18.7401 32
      vertex 20.4821 18.9708 32
    endloop
  endfacet
  facet normal 0.767705 -0.189222 0.612229
    outer loop
      vertex 23.6039 15 33.7355
      vertex 22.2083 13.841 35.1273
      vertex 23.1911 13.3252 33.7355
    endloop
  endfacet
  facet normal 0.346189 0.912871 -0.216378
    outer loop
      vertex 22.0472 17.9659 30.2645
      vertex 20.4821 18.9708 32
      vertex 22.2723 18.2919 32
    endloop
  endfacet
  facet normal 0.730782 -0.647403 0.216394
    outer loop
      vertex 23.5418 13.1411 32
      vertex 22.0472 12.0341 33.7355
      vertex 22.2723 11.7081 32
    endloop
  endfacet
  facet normal 0.280415 -0.739339 -0.612164
    outer loop
      vertex 20.4344 11.4224 30.2645
      vertex 20.9271 12.1468 29.6153
      vertex 22.0472 12.0341 30.2645
    endloop
  endfacet
  facet normal 0.280331 -0.739328 -0.612216
    outer loop
      vertex 20.9271 12.1468 29.6153
      vertex 20.4344 11.4224 30.2645
      vertex 20.3464 12.1468 29.3494
    endloop
  endfacet
  facet normal 0.28049 -0.739222 -0.612272
    outer loop
      vertex 22.0472 12.0341 30.2645
      vertex 20.9271 12.1468 29.6153
      vertex 21.1272 12.2923 29.5313
    endloop
  endfacet
  facet normal 0.157572 0.415464 0.895858
    outer loop
      vertex 20.3006 17.4758 35.1273
      vertex 20.1073 15.8836 35.8997
      vertex 21.4167 17.0525 35.1273
    endloop
  endfacet
  facet normal -0.393439 -0.206472 0.895866
    outer loop
      vertex 19.3338 14.4098 35.8997
      vertex 17.5785 14.4032 35.1273
      vertex 18.1332 13.3462 35.1273
    endloop
  endfacet
  facet normal -0.864462 -0.453751 -0.216372
    outer loop
      vertex 17.006 12.3475 32
      vertex 16.1162 14.0427 32
      vertex 17.3025 12.6102 30.2645
    endloop
  endfacet
  facet normal 0.947945 -0.233647 0.216353
    outer loop
      vertex 23.6039 15 33.7355
      vertex 23.1911 13.3252 33.7355
      vertex 24 15 32
    endloop
  endfacet
  facet normal 0.767679 -0.189215 -0.612263
    outer loop
      vertex 23.1911 13.3252 30.2645
      vertex 22.7768 14.3132 29.4397
      vertex 23.6039 15 30.2645
    endloop
  endfacet
  facet normal 0.767707 -0.189183 -0.612238
    outer loop
      vertex 22.7768 14.3132 29.4397
      vertex 23.1911 13.3252 30.2645
      vertex 22.5629 13.6549 29.3749
    endloop
  endfacet
  facet normal 0.332585 -0.294655 0.89586
    outer loop
      vertex 22.2083 13.841 35.1273
      vertex 20.5056 14.2675 35.8997
      vertex 21.4167 12.9475 35.1273
    endloop
  endfacet
  facet normal 0.34623 0.912865 -0.216338
    outer loop
      vertex 22.0472 17.9659 30.2645
      vertex 20.4344 18.5776 30.2645
      vertex 20.4821 18.9708 32
    endloop
  endfacet
  facet normal 0.767705 -0.189325 -0.612197
    outer loop
      vertex 23.6039 15 30.2645
      vertex 22.7768 14.3132 29.4397
      vertex 23 15 29.5072
    endloop
  endfacet
  facet normal 0.730782 0.647403 0.216394
    outer loop
      vertex 22.2723 18.2919 32
      vertex 22.0472 17.9659 33.7355
      vertex 23.5418 16.8589 32
    endloop
  endfacet
  facet normal -0.449168 -0.650734 0.612203
    outer loop
      vertex 18.1332 13.3462 35.1273
      vertex 17.3025 12.6102 33.7355
      vertex 19.1156 12.6681 35.1273
    endloop
  endfacet
  facet normal 0.280395 0.739309 0.61221
    outer loop
      vertex 22.0472 17.9659 33.7355
      vertex 20.3006 17.4758 35.1273
      vertex 21.4167 17.0525 35.1273
    endloop
  endfacet
  facet normal 0.346189 0.912871 0.216378
    outer loop
      vertex 22.2723 18.2919 32
      vertex 20.4821 18.9708 32
      vertex 22.0472 17.9659 33.7355
    endloop
  endfacet
  facet normal 0.591832 0.524336 0.612214
    outer loop
      vertex 22.0472 17.9659 33.7355
      vertex 21.4167 17.0525 35.1273
      vertex 22.2083 16.159 35.1273
    endloop
  endfacet
  facet normal 0.28041 0.739309 -0.612203
    outer loop
      vertex 21.6213 17.3488 29.3242
      vertex 21.1272 17.7077 29.5313
      vertex 22.0472 17.9659 30.2645
    endloop
  endfacet
  facet normal 0.730782 0.647403 -0.216394
    outer loop
      vertex 23.5418 16.8589 32
      vertex 22.0472 17.9659 30.2645
      vertex 22.2723 18.2919 32
    endloop
  endfacet
  facet normal -0.449187 -0.6507 0.612226
    outer loop
      vertex 19.1156 12.6681 35.1273
      vertex 17.3025 12.6102 33.7355
      vertex 18.722 11.6303 33.7355
    endloop
  endfacet
  facet normal -0.0952958 -0.784919 0.612227
    outer loop
      vertex 19.1156 12.6681 35.1273
      vertex 18.722 11.6303 33.7355
      vertex 20.4344 11.4224 33.7355
    endloop
  endfacet
  facet normal 0.591816 -0.524343 0.612224
    outer loop
      vertex 22.2083 13.841 35.1273
      vertex 22.0472 12.0341 33.7355
      vertex 23.1911 13.3252 33.7355
    endloop
  endfacet
  facet normal 0.280401 -0.739302 0.612215
    outer loop
      vertex 22.0472 12.0341 33.7355
      vertex 20.3006 12.5242 35.1273
      vertex 20.4344 11.4224 33.7355
    endloop
  endfacet
  facet normal -0.0953172 -0.784926 0.612213
    outer loop
      vertex 20.3006 12.5242 35.1273
      vertex 19.1156 12.6681 35.1273
      vertex 20.4344 11.4224 33.7355
    endloop
  endfacet
  facet normal 0.947945 -0.233659 -0.216342
    outer loop
      vertex 23.5418 13.1411 32
      vertex 23.1911 13.3252 30.2645
      vertex 24 15 32
    endloop
  endfacet
  facet normal 0.730759 -0.647444 -0.216348
    outer loop
      vertex 23.5418 13.1411 32
      vertex 22.0472 12.0341 30.2645
      vertex 23.1911 13.3252 30.2645
    endloop
  endfacet
  facet normal -0.700073 0.367478 -0.612256
    outer loop
      vertex 17.4549 16.3999 29.4961
      vertex 16.5008 15.8625 30.2645
      vertex 17.3025 17.3898 30.2645
    endloop
  endfacet
  facet normal -0.700077 0.367571 -0.612196
    outer loop
      vertex 16.5008 15.8625 30.2645
      vertex 17.4549 16.3999 29.4961
      vertex 17.2224 15.6846 29.3325
    endloop
  endfacet
  facet normal -0.0952318 -0.784978 -0.612161
    outer loop
      vertex 19.6675 12.1468 29.4551
      vertex 18.722 11.6303 30.2645
      vertex 19.0729 12.1468 29.5476
    endloop
  endfacet
  facet normal -0.0956759 -0.784835 -0.612275
    outer loop
      vertex 19.0729 12.1468 29.5476
      vertex 18.722 11.6303 30.2645
      vertex 18.9514 12.2351 29.4534
    endloop
  endfacet
  facet normal -0.0952975 -0.784933 -0.612208
    outer loop
      vertex 18.722 11.6303 30.2645
      vertex 19.6675 12.1468 29.4551
      vertex 20.4344 11.4224 30.2645
    endloop
  endfacet
  facet normal 0.591949 -0.524143 -0.612267
    outer loop
      vertex 23.1911 13.3252 30.2645
      vertex 22.4271 13.2366 29.6017
      vertex 22.5629 13.6549 29.3749
    endloop
  endfacet
  facet normal 0.591866 -0.524387 -0.612138
    outer loop
      vertex 22.0472 12.0341 30.2645
      vertex 22.4271 13.2366 29.6017
      vertex 23.1911 13.3252 30.2645
    endloop
  endfacet
  facet normal 0.591579 -0.524429 -0.612379
    outer loop
      vertex 22.4271 13.2366 29.6017
      vertex 22.0472 12.0341 30.2645
      vertex 22.1355 13.0249 29.5013
    endloop
  endfacet
  facet normal 0.767705 0.189325 -0.612197
    outer loop
      vertex 23 15 29.5072
      vertex 22.7768 15.6868 29.4397
      vertex 23.6039 15 30.2645
    endloop
  endfacet
  facet normal -0.0953149 -0.784939 -0.612198
    outer loop
      vertex 20.4344 11.4224 30.2645
      vertex 19.6675 12.1468 29.4551
      vertex 20.3464 12.1468 29.3494
    endloop
  endfacet
  facet normal 0.28041 -0.739309 -0.612203
    outer loop
      vertex 22.0472 12.0341 30.2645
      vertex 21.1272 12.2923 29.5313
      vertex 21.6213 12.6512 29.3242
    endloop
  endfacet
  facet normal 0.76771 0.189245 0.612215
    outer loop
      vertex 23.6039 15 33.7355
      vertex 22.2083 16.159 35.1273
      vertex 22.494 15 35.1273
    endloop
  endfacet
  facet normal 0.591816 0.524343 0.612224
    outer loop
      vertex 23.1911 16.6748 33.7355
      vertex 22.0472 17.9659 33.7355
      vertex 22.2083 16.159 35.1273
    endloop
  endfacet
  facet normal 0.332585 0.294655 0.89586
    outer loop
      vertex 21.4167 17.0525 35.1273
      vertex 20.5056 15.7325 35.8997
      vertex 22.2083 16.159 35.1273
    endloop
  endfacet
  facet normal 0.947945 0.233647 0.216353
    outer loop
      vertex 24 15 32
      vertex 23.1911 16.6748 33.7355
      vertex 23.6039 15 33.7355
    endloop
  endfacet
  facet normal 0.280401 0.739302 0.612215
    outer loop
      vertex 20.4344 18.5776 33.7355
      vertex 20.3006 17.4758 35.1273
      vertex 22.0472 17.9659 33.7355
    endloop
  endfacet
  facet normal 0.34623 0.912865 0.216338
    outer loop
      vertex 20.4821 18.9708 32
      vertex 20.4344 18.5776 33.7355
      vertex 22.0472 17.9659 33.7355
    endloop
  endfacet
  facet normal -0.0536087 0.441073 0.895869
    outer loop
      vertex 20.1073 15.8836 35.8997
      vertex 19.1156 17.3319 35.1273
      vertex 19.6844 15.8322 35.8997
    endloop
  endfacet
  facet normal -0.864458 -0.453765 0.216357
    outer loop
      vertex 16.5008 14.1375 33.7355
      vertex 16.1162 14.0427 32
      vertex 17.3025 12.6102 33.7355
    endloop
  endfacet
  facet normal -0.700083 0.367483 0.612243
    outer loop
      vertex 17.3025 17.3898 33.7355
      vertex 16.5008 15.8625 33.7355
      vertex 17.5785 15.5968 35.1273
    endloop
  endfacet
  facet normal -0.0952958 0.784919 0.612227
    outer loop
      vertex 20.4344 18.5776 33.7355
      vertex 18.722 18.3697 33.7355
      vertex 19.1156 17.3319 35.1273
    endloop
  endfacet
  facet normal 0.730759 0.647444 0.216348
    outer loop
      vertex 23.5418 16.8589 32
      vertex 22.0472 17.9659 33.7355
      vertex 23.1911 16.6748 33.7355
    endloop
  endfacet
  facet normal 0.947945 0.233659 0.216342
    outer loop
      vertex 23.5418 16.8589 32
      vertex 23.1911 16.6748 33.7355
      vertex 24 15 32
    endloop
  endfacet
  facet normal -0.864462 0.453751 0.216372
    outer loop
      vertex 17.006 17.6525 32
      vertex 16.1162 15.9573 32
      vertex 17.3025 17.3898 33.7355
    endloop
  endfacet
  facet normal -0.252405 0.365673 0.895866
    outer loop
      vertex 19.1156 17.3319 35.1273
      vertex 18.1332 16.6538 35.1273
      vertex 19.3338 15.5902 35.8997
    endloop
  endfacet
  facet normal 0.591832 -0.524336 0.612214
    outer loop
      vertex 22.2083 13.841 35.1273
      vertex 21.4167 12.9475 35.1273
      vertex 22.0472 12.0341 33.7355
    endloop
  endfacet
  facet normal -0.0535645 -0.441098 0.895859
    outer loop
      vertex 20.1073 14.1164 35.8997
      vertex 19.1156 12.6681 35.1273
      vertex 20.3006 12.5242 35.1273
    endloop
  endfacet
  facet normal -0.554642 -0.803464 0.216376
    outer loop
      vertex 17.3025 12.6102 33.7355
      vertex 17.006 12.3475 32
      vertex 18.722 11.6303 33.7355
    endloop
  endfacet
  facet normal -0.554625 -0.803482 -0.216352
    outer loop
      vertex 18.5816 11.2599 32
      vertex 17.006 12.3475 32
      vertex 18.722 11.6303 30.2645
    endloop
  endfacet
  facet normal -0.11765 -0.969201 0.216351
    outer loop
      vertex 20.4344 11.4224 33.7355
      vertex 18.5816 11.2599 32
      vertex 20.4821 11.0292 32
    endloop
  endfacet
  facet normal -0.117669 -0.969195 -0.21637
    outer loop
      vertex 20.4344 11.4224 30.2645
      vertex 18.5816 11.2599 32
      vertex 18.722 11.6303 30.2645
    endloop
  endfacet
  facet normal 0.34623 -0.912865 -0.216338
    outer loop
      vertex 20.4821 11.0292 32
      vertex 20.4344 11.4224 30.2645
      vertex 22.0472 12.0341 30.2645
    endloop
  endfacet
  facet normal 0.730759 -0.647444 0.216348
    outer loop
      vertex 23.1911 13.3252 33.7355
      vertex 22.0472 12.0341 33.7355
      vertex 23.5418 13.1411 32
    endloop
  endfacet
  facet normal 0.947945 -0.233659 0.216342
    outer loop
      vertex 24 15 32
      vertex 23.1911 13.3252 33.7355
      vertex 23.5418 13.1411 32
    endloop
  endfacet
  facet normal 0.591949 0.524143 -0.612267
    outer loop
      vertex 22.4271 16.7634 29.6017
      vertex 23.1911 16.6748 30.2645
      vertex 22.5629 16.3451 29.3749
    endloop
  endfacet
  facet normal 0.591579 0.524429 -0.612379
    outer loop
      vertex 22.0472 17.9659 30.2645
      vertex 22.4271 16.7634 29.6017
      vertex 22.1355 16.9751 29.5013
    endloop
  endfacet
  facet normal 0.591866 0.524387 -0.612138
    outer loop
      vertex 22.4271 16.7634 29.6017
      vertex 22.0472 17.9659 30.2645
      vertex 23.1911 16.6748 30.2645
    endloop
  endfacet
  facet normal 0.591892 0.524306 -0.612183
    outer loop
      vertex 22.1355 16.9751 29.5013
      vertex 21.6213 17.3488 29.3242
      vertex 22.0472 17.9659 30.2645
    endloop
  endfacet
  facet normal 0.157601 0.415436 0.895865
    outer loop
      vertex 21.4167 17.0525 35.1273
      vertex 20.1073 15.8836 35.8997
      vertex 20.5056 15.7325 35.8997
    endloop
  endfacet
  facet normal 0.767705 0.189222 0.612229
    outer loop
      vertex 23.1911 16.6748 33.7355
      vertex 22.2083 16.159 35.1273
      vertex 23.6039 15 33.7355
    endloop
  endfacet
  facet normal -0.117669 0.969195 -0.21637
    outer loop
      vertex 18.722 18.3697 30.2645
      vertex 18.5816 18.7401 32
      vertex 20.4344 18.5776 30.2645
    endloop
  endfacet
  facet normal -0.700077 -0.367571 -0.612196
    outer loop
      vertex 17.4549 13.6001 29.4961
      vertex 16.5008 14.1375 30.2645
      vertex 17.2224 14.3154 29.3325
    endloop
  endfacet
  facet normal -0.700073 -0.367478 -0.612256
    outer loop
      vertex 16.5008 14.1375 30.2645
      vertex 17.4549 13.6001 29.4961
      vertex 17.3025 12.6102 30.2645
    endloop
  endfacet
  facet normal -0.700083 -0.367483 0.612243
    outer loop
      vertex 17.5785 14.4032 35.1273
      vertex 16.5008 14.1375 33.7355
      vertex 17.3025 12.6102 33.7355
    endloop
  endfacet
  facet normal -0.700154 -0.367432 0.612191
    outer loop
      vertex 17.5785 14.4032 35.1273
      vertex 17.3025 12.6102 33.7355
      vertex 18.1332 13.3462 35.1273
    endloop
  endfacet
  facet normal 0.730759 0.647444 -0.216348
    outer loop
      vertex 23.1911 16.6748 30.2645
      vertex 22.0472 17.9659 30.2645
      vertex 23.5418 16.8589 32
    endloop
  endfacet
  facet normal 0.947945 0.233659 -0.216342
    outer loop
      vertex 24 15 32
      vertex 23.1911 16.6748 30.2645
      vertex 23.5418 16.8589 32
    endloop
  endfacet
  facet normal -0.700361 -0.367273 -0.61205
    outer loop
      vertex 17.5729 13.2366 29.5792
      vertex 17.3025 12.6102 30.2645
      vertex 17.4549 13.6001 29.4961
    endloop
  endfacet
  facet normal -0.700214 -0.367423 -0.612128
    outer loop
      vertex 17.3025 12.6102 30.2645
      vertex 17.5729 13.2366 29.5792
      vertex 17.8128 13.0623 29.4094
    endloop
  endfacet
  facet normal -0.0952975 0.784933 -0.612208
    outer loop
      vertex 19.6675 17.8532 29.4551
      vertex 18.722 18.3697 30.2645
      vertex 20.4344 18.5776 30.2645
    endloop
  endfacet
  facet normal -0.0952318 0.784978 -0.612161
    outer loop
      vertex 18.722 18.3697 30.2645
      vertex 19.6675 17.8532 29.4551
      vertex 19.0729 17.8532 29.5476
    endloop
  endfacet
  facet normal -0.0956759 0.784835 -0.612275
    outer loop
      vertex 18.722 18.3697 30.2645
      vertex 19.0729 17.8532 29.5476
      vertex 18.9514 17.7649 29.4534
    endloop
  endfacet
  facet normal -0.449187 0.6507 0.612226
    outer loop
      vertex 18.722 18.3697 33.7355
      vertex 17.3025 17.3898 33.7355
      vertex 19.1156 17.3319 35.1273
    endloop
  endfacet
  facet normal -0.449118 0.650732 -0.612243
    outer loop
      vertex 18.3875 17.3552 29.4316
      vertex 18.722 18.3697 30.2645
      vertex 18.9514 17.7649 29.4534
    endloop
  endfacet
  facet normal -0.4492 0.65072 -0.612195
    outer loop
      vertex 18.722 18.3697 30.2645
      vertex 18.3875 17.3552 29.4316
      vertex 17.3025 17.3898 30.2645
    endloop
  endfacet
  facet normal -0.0953172 0.784926 0.612213
    outer loop
      vertex 20.4344 18.5776 33.7355
      vertex 19.1156 17.3319 35.1273
      vertex 20.3006 17.4758 35.1273
    endloop
  endfacet
  facet normal -0.252405 -0.365673 0.895866
    outer loop
      vertex 19.3338 14.4098 35.8997
      vertex 18.1332 13.3462 35.1273
      vertex 19.1156 12.6681 35.1273
    endloop
  endfacet
  facet normal 0.76771 -0.189245 0.612215
    outer loop
      vertex 22.494 15 35.1273
      vertex 22.2083 13.841 35.1273
      vertex 23.6039 15 33.7355
    endloop
  endfacet
  facet normal -0.444335 0 0.895861
    outer loop
      vertex 17.5785 15.5968 35.1273
      vertex 19.1358 14.787 35.8997
      vertex 19.1358 15.213 35.8997
    endloop
  endfacet
  facet normal -0.444335 0 0.895861
    outer loop
      vertex 19.1358 14.787 35.8997
      vertex 17.5785 15.5968 35.1273
      vertex 17.5785 14.4032 35.1273
    endloop
  endfacet
  facet normal -0.4492 -0.65072 -0.612195
    outer loop
      vertex 18.3875 12.6448 29.4316
      vertex 18.722 11.6303 30.2645
      vertex 17.3025 12.6102 30.2645
    endloop
  endfacet
  facet normal -0.449118 -0.650732 -0.612243
    outer loop
      vertex 18.722 11.6303 30.2645
      vertex 18.3875 12.6448 29.4316
      vertex 18.9514 12.2351 29.4534
    endloop
  endfacet
  facet normal -0.554642 -0.803464 -0.216376
    outer loop
      vertex 18.722 11.6303 30.2645
      vertex 17.006 12.3475 32
      vertex 17.3025 12.6102 30.2645
    endloop
  endfacet
  facet normal 0.346189 -0.912871 0.216378
    outer loop
      vertex 22.0472 12.0341 33.7355
      vertex 20.4821 11.0292 32
      vertex 22.2723 11.7081 32
    endloop
  endfacet
  facet normal 0.346189 -0.912871 -0.216378
    outer loop
      vertex 22.2723 11.7081 32
      vertex 20.4821 11.0292 32
      vertex 22.0472 12.0341 30.2645
    endloop
  endfacet
  facet normal -0.11765 -0.969201 -0.216351
    outer loop
      vertex 20.4821 11.0292 32
      vertex 18.5816 11.2599 32
      vertex 20.4344 11.4224 30.2645
    endloop
  endfacet
  facet normal 0.34623 -0.912865 0.216338
    outer loop
      vertex 22.0472 12.0341 33.7355
      vertex 20.4344 11.4224 33.7355
      vertex 20.4821 11.0292 32
    endloop
  endfacet
  facet normal -0.117669 -0.969195 0.21637
    outer loop
      vertex 18.722 11.6303 33.7355
      vertex 18.5816 11.2599 32
      vertex 20.4344 11.4224 33.7355
    endloop
  endfacet
  facet normal -0.554625 -0.803482 0.216352
    outer loop
      vertex 18.722 11.6303 33.7355
      vertex 17.006 12.3475 32
      vertex 18.5816 11.2599 32
    endloop
  endfacet
  facet normal 0.591892 -0.524306 -0.612183
    outer loop
      vertex 22.0472 12.0341 30.2645
      vertex 21.6213 12.6512 29.3242
      vertex 22.1355 13.0249 29.5013
    endloop
  endfacet
  facet normal 0.332593 0.29463 0.895865
    outer loop
      vertex 22.2083 16.159 35.1273
      vertex 20.5056 15.7325 35.8997
      vertex 20.7881 15.4136 35.8997
    endloop
  endfacet
  facet normal 0.431395 0.106388 0.895868
    outer loop
      vertex 22.2083 16.159 35.1273
      vertex 20.7881 15.4136 35.8997
      vertex 20.8901 15 35.8997
    endloop
  endfacet
  facet normal -0.790675 0 0.612236
    outer loop
      vertex 16.5008 15.8625 33.7355
      vertex 17.5785 14.4032 35.1273
      vertex 17.5785 15.5968 35.1273
    endloop
  endfacet
  facet normal -0.790675 0 0.612236
    outer loop
      vertex 17.5785 14.4032 35.1273
      vertex 16.5008 15.8625 33.7355
      vertex 16.5008 14.1375 33.7355
    endloop
  endfacet
  facet normal -0.976314 0 -0.216359
    outer loop
      vertex 16.5008 14.1375 30.2645
      vertex 16.1162 15.9573 32
      vertex 16.5008 15.8625 30.2645
    endloop
  endfacet
  facet normal -0.976314 -0 -0.216359
    outer loop
      vertex 16.1162 15.9573 32
      vertex 16.5008 14.1375 30.2645
      vertex 16.1162 14.0427 32
    endloop
  endfacet
  facet normal 0.767707 0.189183 -0.612238
    outer loop
      vertex 23.1911 16.6748 30.2645
      vertex 22.7768 15.6868 29.4397
      vertex 22.5629 16.3451 29.3749
    endloop
  endfacet
  facet normal 0.767679 0.189215 -0.612263
    outer loop
      vertex 22.7768 15.6868 29.4397
      vertex 23.1911 16.6748 30.2645
      vertex 23.6039 15 30.2645
    endloop
  endfacet
  facet normal 0.947945 0.233647 -0.216353
    outer loop
      vertex 23.6039 15 30.2645
      vertex 23.1911 16.6748 30.2645
      vertex 24 15 32
    endloop
  endfacet
  facet normal -0.790707 -4.4609e-05 -0.612195
    outer loop
      vertex 17 15 29.6198
      vertex 16.5008 15.8625 30.2645
      vertex 17.2224 15.6846 29.3325
    endloop
  endfacet
  facet normal -0.790707 4.4609e-05 -0.612195
    outer loop
      vertex 16.5008 14.1375 30.2645
      vertex 17 15 29.6198
      vertex 17.2224 14.3154 29.3325
    endloop
  endfacet
  facet normal -0.790678 0 -0.612233
    outer loop
      vertex 17 15 29.6198
      vertex 16.5008 14.1375 30.2645
      vertex 16.5008 15.8625 30.2645
    endloop
  endfacet
  facet normal -0.449149 -0.650815 -0.612132
    outer loop
      vertex 18.3875 12.6448 29.4316
      vertex 17.3025 12.6102 30.2645
      vertex 17.8128 13.0623 29.4094
    endloop
  endfacet
  facet normal -0.0953149 0.784939 -0.612198
    outer loop
      vertex 20.3464 17.8532 29.3494
      vertex 19.6675 17.8532 29.4551
      vertex 20.4344 18.5776 30.2645
    endloop
  endfacet
  facet normal 0.280415 0.739339 -0.612164
    outer loop
      vertex 22.0472 17.9659 30.2645
      vertex 20.9271 17.8532 29.6153
      vertex 20.4344 18.5776 30.2645
    endloop
  endfacet
  facet normal 0.28049 0.739222 -0.612272
    outer loop
      vertex 20.9271 17.8532 29.6153
      vertex 22.0472 17.9659 30.2645
      vertex 21.1272 17.7077 29.5313
    endloop
  endfacet
  facet normal 0.280331 0.739328 -0.612216
    outer loop
      vertex 20.4344 18.5776 30.2645
      vertex 20.9271 17.8532 29.6153
      vertex 20.3464 17.8532 29.3494
    endloop
  endfacet
  facet normal -0.0536087 -0.441073 0.895869
    outer loop
      vertex 19.6844 14.1678 35.8997
      vertex 19.1156 12.6681 35.1273
      vertex 20.1073 14.1164 35.8997
    endloop
  endfacet
  facet normal 0.431414 -0.106346 0.895864
    outer loop
      vertex 22.494 15 35.1273
      vertex 20.7881 14.5864 35.8997
      vertex 22.2083 13.841 35.1273
    endloop
  endfacet
  facet normal 0.431422 -0.106395 0.895854
    outer loop
      vertex 20.8901 15 35.8997
      vertex 20.7881 14.5864 35.8997
      vertex 22.494 15 35.1273
    endloop
  endfacet
  facet normal 0.157572 -0.415464 0.895858
    outer loop
      vertex 21.4167 12.9475 35.1273
      vertex 20.1073 14.1164 35.8997
      vertex 20.3006 12.5242 35.1273
    endloop
  endfacet
  facet normal 0.280395 -0.739309 0.61221
    outer loop
      vertex 21.4167 12.9475 35.1273
      vertex 20.3006 12.5242 35.1273
      vertex 22.0472 12.0341 33.7355
    endloop
  endfacet
  facet normal -0.393439 0.206472 0.895866
    outer loop
      vertex 18.1332 16.6538 35.1273
      vertex 17.5785 15.5968 35.1273
      vertex 19.3338 15.5902 35.8997
    endloop
  endfacet
  facet normal -0.864458 0.453765 -0.216357
    outer loop
      vertex 16.5008 15.8625 30.2645
      vertex 16.1162 15.9573 32
      vertex 17.3025 17.3898 30.2645
    endloop
  endfacet
  facet normal -0.393435 -0.206522 0.895856
    outer loop
      vertex 19.1358 14.787 35.8997
      vertex 17.5785 14.4032 35.1273
      vertex 19.3338 14.4098 35.8997
    endloop
  endfacet
  facet normal -0.864458 0.453765 0.216357
    outer loop
      vertex 17.3025 17.3898 33.7355
      vertex 16.1162 15.9573 32
      vertex 16.5008 15.8625 33.7355
    endloop
  endfacet
  facet normal -0.554642 0.803464 -0.216376
    outer loop
      vertex 17.3025 17.3898 30.2645
      vertex 17.006 17.6525 32
      vertex 18.722 18.3697 30.2645
    endloop
  endfacet
  facet normal -0.700214 0.367423 -0.612128
    outer loop
      vertex 17.5729 16.7634 29.5792
      vertex 17.3025 17.3898 30.2645
      vertex 17.8128 16.9377 29.4094
    endloop
  endfacet
  facet normal -0.700361 0.367273 -0.61205
    outer loop
      vertex 17.3025 17.3898 30.2645
      vertex 17.5729 16.7634 29.5792
      vertex 17.4549 16.3999 29.4961
    endloop
  endfacet
  facet normal -0.449149 0.650815 -0.612132
    outer loop
      vertex 17.8128 16.9377 29.4094
      vertex 17.3025 17.3898 30.2645
      vertex 18.3875 17.3552 29.4316
    endloop
  endfacet
  facet normal 0.332593 -0.29463 0.895865
    outer loop
      vertex 20.7881 14.5864 35.8997
      vertex 20.5056 14.2675 35.8997
      vertex 22.2083 13.841 35.1273
    endloop
  endfacet
  facet normal -0.976314 0 0.216359
    outer loop
      vertex 16.1162 15.9573 32
      vertex 16.5008 14.1375 33.7355
      vertex 16.5008 15.8625 33.7355
    endloop
  endfacet
  facet normal -0.976314 0 0.216359
    outer loop
      vertex 16.5008 14.1375 33.7355
      vertex 16.1162 15.9573 32
      vertex 16.1162 14.0427 32
    endloop
  endfacet
  facet normal -0.0535645 0.441098 0.895859
    outer loop
      vertex 20.3006 17.4758 35.1273
      vertex 19.1156 17.3319 35.1273
      vertex 20.1073 15.8836 35.8997
    endloop
  endfacet
  facet normal -0.117669 0.969195 0.21637
    outer loop
      vertex 20.4344 18.5776 33.7355
      vertex 18.5816 18.7401 32
      vertex 18.722 18.3697 33.7355
    endloop
  endfacet
  facet normal -0.11765 0.969201 0.216351
    outer loop
      vertex 20.4821 18.9708 32
      vertex 18.5816 18.7401 32
      vertex 20.4344 18.5776 33.7355
    endloop
  endfacet
  facet normal -0.554642 0.803464 0.216376
    outer loop
      vertex 18.722 18.3697 33.7355
      vertex 17.006 17.6525 32
      vertex 17.3025 17.3898 33.7355
    endloop
  endfacet
  facet normal -0.864462 0.453751 -0.216372
    outer loop
      vertex 17.3025 17.3898 30.2645
      vertex 16.1162 15.9573 32
      vertex 17.006 17.6525 32
    endloop
  endfacet
  facet normal -0.252404 0.365673 0.895866
    outer loop
      vertex 19.6844 15.8322 35.8997
      vertex 19.1156 17.3319 35.1273
      vertex 19.3338 15.5902 35.8997
    endloop
  endfacet
  facet normal -0.554625 0.803482 0.216352
    outer loop
      vertex 18.5816 18.7401 32
      vertex 17.006 17.6525 32
      vertex 18.722 18.3697 33.7355
    endloop
  endfacet
  facet normal -0.554625 0.803482 -0.216352
    outer loop
      vertex 18.722 18.3697 30.2645
      vertex 17.006 17.6525 32
      vertex 18.5816 18.7401 32
    endloop
  endfacet
  facet normal -0.449168 0.650734 0.612203
    outer loop
      vertex 19.1156 17.3319 35.1273
      vertex 17.3025 17.3898 33.7355
      vertex 18.1332 16.6538 35.1273
    endloop
  endfacet
  facet normal -0.700154 0.367432 0.612191
    outer loop
      vertex 18.1332 16.6538 35.1273
      vertex 17.3025 17.3898 33.7355
      vertex 17.5785 15.5968 35.1273
    endloop
  endfacet
  facet normal 0.951065 -0 0.308992
    outer loop
      vertex 17 0 8
      vertex 17.5729 6 6.23664
      vertex 17 6 8
    endloop
  endfacet
  facet normal 0.951065 0 0.308992
    outer loop
      vertex 17.5729 6 6.23664
      vertex 17 0 8
      vertex 17.5729 0 6.23664
    endloop
  endfacet
  facet normal 0.587795 0 -0.80901
    outer loop
      vertex 17.5729 0 9.76336
      vertex 19.0729 6 10.8532
      vertex 19.0729 0 10.8532
    endloop
  endfacet
  facet normal 0.587795 0 -0.80901
    outer loop
      vertex 19.0729 6 10.8532
      vertex 17.5729 0 9.76336
      vertex 17.5729 6 9.76336
    endloop
  endfacet
  facet normal -0.587784 0 0.809018
    outer loop
      vertex 20.9271 6 5.14683
      vertex 22.4271 0 6.23664
      vertex 22.4271 6 6.23664
    endloop
  endfacet
  facet normal -0.587784 0 0.809018
    outer loop
      vertex 22.4271 0 6.23664
      vertex 20.9271 6 5.14683
      vertex 20.9271 0 5.14683
    endloop
  endfacet
  facet normal -0.951065 0 0.308992
    outer loop
      vertex 22.4271 0 6.23664
      vertex 23 6 8
      vertex 22.4271 6 6.23664
    endloop
  endfacet
  facet normal -0.951065 0 0.308992
    outer loop
      vertex 23 6 8
      vertex 22.4271 0 6.23664
      vertex 23 0 8
    endloop
  endfacet
  facet normal -0 0 1
    outer loop
      vertex 19.0729 6 5.14683
      vertex 20.9271 0 5.14683
      vertex 20.9271 6 5.14683
    endloop
  endfacet
  facet normal 0 0 1
    outer loop
      vertex 20.9271 0 5.14683
      vertex 19.0729 6 5.14683
      vertex 19.0729 0 5.14683
    endloop
  endfacet
  facet normal -0.587795 0 -0.80901
    outer loop
      vertex 20.9271 0 10.8532
      vertex 22.4271 6 9.76336
      vertex 22.4271 0 9.76336
    endloop
  endfacet
  facet normal -0.587795 0 -0.80901
    outer loop
      vertex 22.4271 6 9.76336
      vertex 20.9271 0 10.8532
      vertex 20.9271 6 10.8532
    endloop
  endfacet
  facet normal 0 0 -1
    outer loop
      vertex 19.0729 0 10.8532
      vertex 20.9271 6 10.8532
      vertex 20.9271 0 10.8532
    endloop
  endfacet
  facet normal -0 0 -1
    outer loop
      vertex 20.9271 6 10.8532
      vertex 19.0729 0 10.8532
      vertex 19.0729 6 10.8532
    endloop
  endfacet
  facet normal 0.587784 0 0.809018
    outer loop
      vertex 17.5729 6 6.23664
      vertex 19.0729 0 5.14683
      vertex 19.0729 6 5.14683
    endloop
  endfacet
  facet normal 0.587784 0 0.809018
    outer loop
      vertex 19.0729 0 5.14683
      vertex 17.5729 6 6.23664
      vertex 17.5729 0 6.23664
    endloop
  endfacet
  facet normal -0.951065 0 -0.308992
    outer loop
      vertex 23 0 8
      vertex 22.4271 6 9.76336
      vertex 23 6 8
    endloop
  endfacet
  facet normal -0.951065 -0 -0.308992
    outer loop
      vertex 22.4271 6 9.76336
      vertex 23 0 8
      vertex 22.4271 0 9.76336
    endloop
  endfacet
  facet normal 0.951065 0 -0.308992
    outer loop
      vertex 17.5729 0 9.76336
      vertex 17 6 8
      vertex 17.5729 6 9.76336
    endloop
  endfacet
  facet normal 0.951065 0 -0.308992
    outer loop
      vertex 17 6 8
      vertex 17.5729 0 9.76336
      vertex 17 0 8
    endloop
  endfacet
  facet normal 0 -1 0
    outer loop
      vertex 17.5729 6 9.76336
      vertex 20.9271 6 10.8532
      vertex 19.0729 6 10.8532
    endloop
  endfacet
  facet normal 0 -1 0
    outer loop
      vertex 17.5729 6 9.76336
      vertex 22.4271 6 9.76336
      vertex 20.9271 6 10.8532
    endloop
  endfacet
  facet normal 0 -1 0
    outer loop
      vertex 17 6 8
      vertex 22.4271 6 9.76336
      vertex 17.5729 6 9.76336
    endloop
  endfacet
  facet normal 0 -1 0
    outer loop
      vertex 17 6 8
      vertex 23 6 8
      vertex 22.4271 6 9.76336
    endloop
  endfacet
  facet normal 0 -1 0
    outer loop
      vertex 17.5729 6 6.23664
      vertex 23 6 8
      vertex 17 6 8
    endloop
  endfacet
  facet normal 0 -1 0
    outer loop
      vertex 17.5729 6 6.23664
      vertex 22.4271 6 6.23664
      vertex 23 6 8
    endloop
  endfacet
  facet normal 0 -1 0
    outer loop
      vertex 19.0729 6 5.14683
      vertex 22.4271 6 6.23664
      vertex 17.5729 6 6.23664
    endloop
  endfacet
  facet normal 0 -1 0
    outer loop
      vertex 22.4271 6 6.23664
      vertex 19.0729 6 5.14683
      vertex 20.9271 6 5.14683
    endloop
  endfacet
endsolid OpenSCAD_Model
