solid OpenSCAD_Model
  facet normal 0 0 -1
    outer loop
      vertex 43 18.5 9
      vertex 28 -1.5 9
      vertex 28 14.5 9
    endloop
  endfacet
  facet normal -1 0 0
    outer loop
      vertex 28 -1.5 9
      vertex 28 14.5 12
      vertex 28 14.5 9
    endloop
  endfacet
  facet normal -1 -0 0
    outer loop
      vertex 28 14.5 12
      vertex 28 -1.5 9
      vertex 28 -1.5 12
    endloop
  endfacet
  facet normal 0.8 -0.6 0
    outer loop
      vertex 28 -1.5 12
      vertex 43 18.5 9
      vertex 43 18.5 12
    endloop
  endfacet
  facet normal 0.8 -0.6 0
    outer loop
      vertex 43 18.5 9
      vertex 28 -1.5 12
      vertex 28 -1.5 9
    endloop
  endfacet
  facet normal -0 0 1
    outer loop
      vertex 28 14.5 12
      vertex 28 -1.5 12
      vertex 43 18.5 12
    endloop
  endfacet
  facet normal -0.257663 0.966235 0
    outer loop
      vertex 43 18.5 9
      vertex 28 14.5 12
      vertex 43 18.5 12
    endloop
  endfacet
  facet normal -0.257663 0.966235 0
    outer loop
      vertex 28 14.5 12
      vertex 43 18.5 9
      vertex 28 14.5 9
    endloop
  endfacet
  facet normal 0 0 -1
    outer loop
      vertex -26.5574 16.9987 9
      vertex -37.5215 27.9891 9
      vertex -12.701 24.9987 9
    endloop
  endfacet
  facet normal 0.5 -0.866025 0
    outer loop
      vertex -26.5574 16.9987 9
      vertex -12.701 24.9987 12
      vertex -26.5574 16.9987 12
    endloop
  endfacet
  facet normal 0.5 -0.866025 0
    outer loop
      vertex -12.701 24.9987 12
      vertex -26.5574 16.9987 9
      vertex -12.701 24.9987 9
    endloop
  endfacet
  facet normal 0 0 1
    outer loop
      vertex -12.701 24.9987 12
      vertex -37.5215 27.9891 12
      vertex -26.5574 16.9987 12
    endloop
  endfacet
  facet normal 0.119616 0.99282 -0
    outer loop
      vertex -12.701 24.9987 9
      vertex -37.5215 27.9891 12
      vertex -12.701 24.9987 12
    endloop
  endfacet
  facet normal 0.119616 0.99282 0
    outer loop
      vertex -37.5215 27.9891 12
      vertex -12.701 24.9987 9
      vertex -37.5215 27.9891 9
    endloop
  endfacet
  facet normal -0.707953 -0.706259 0
    outer loop
      vertex -26.5574 16.9987 9
      vertex -37.5215 27.9891 12
      vertex -37.5215 27.9891 9
    endloop
  endfacet
  facet normal -0.707953 -0.706259 0
    outer loop
      vertex -37.5215 27.9891 12
      vertex -26.5574 16.9987 9
      vertex -26.5574 16.9987 12
    endloop
  endfacet
  facet normal 0 0 -1
    outer loop
      vertex -5.47853 -46.4891 9
      vertex -15.299 -23.4987 9
      vertex -1.44263 -31.4987 9
    endloop
  endfacet
  facet normal 0.500001 0.866025 -0
    outer loop
      vertex -1.44263 -31.4987 9
      vertex -15.299 -23.4987 12
      vertex -1.44263 -31.4987 12
    endloop
  endfacet
  facet normal 0.500001 0.866025 0
    outer loop
      vertex -15.299 -23.4987 12
      vertex -1.44263 -31.4987 9
      vertex -15.299 -23.4987 9
    endloop
  endfacet
  facet normal -0.919616 -0.392819 0
    outer loop
      vertex -5.47853 -46.4891 9
      vertex -15.299 -23.4987 12
      vertex -15.299 -23.4987 9
    endloop
  endfacet
  facet normal -0.919616 -0.392819 0
    outer loop
      vertex -15.299 -23.4987 12
      vertex -5.47853 -46.4891 9
      vertex -5.47853 -46.4891 12
    endloop
  endfacet
  facet normal 0 0 1
    outer loop
      vertex -1.44263 -31.4987 12
      vertex -15.299 -23.4987 12
      vertex -5.47853 -46.4891 12
    endloop
  endfacet
  facet normal 0.965615 -0.259975 0
    outer loop
      vertex -5.47853 -46.4891 12
      vertex -1.44263 -31.4987 9
      vertex -1.44263 -31.4987 12
    endloop
  endfacet
  facet normal 0.965615 -0.259975 0
    outer loop
      vertex -1.44263 -31.4987 9
      vertex -5.47853 -46.4891 12
      vertex -5.47853 -46.4891 9
    endloop
  endfacet
  facet normal 0.951059 0.309008 0
    outer loop
      vertex 14.6722 3.11868 39
      vertex 13.7032 6.10105 0
      vertex 13.7032 6.10105 39
    endloop
  endfacet
  facet normal 0.951059 0.309008 0
    outer loop
      vertex 13.7032 6.10105 0
      vertex 14.6722 3.11868 39
      vertex 14.6722 3.11868 0
    endloop
  endfacet
  facet normal 0.994521 0.104533 0
    outer loop
      vertex 15 0 39
      vertex 14.6722 3.11868 0
      vertex 14.6722 3.11868 39
    endloop
  endfacet
  facet normal 0.994521 0.104533 0
    outer loop
      vertex 14.6722 3.11868 0
      vertex 15 0 39
      vertex 15 0 0
    endloop
  endfacet
  facet normal 0.866029 0.499993 0
    outer loop
      vertex 13.7032 6.10105 39
      vertex 12.1353 8.81678 0
      vertex 12.1353 8.81678 39
    endloop
  endfacet
  facet normal 0.866029 0.499993 0
    outer loop
      vertex 12.1353 8.81678 0
      vertex 13.7032 6.10105 39
      vertex 13.7032 6.10105 0
    endloop
  endfacet
  facet normal 0.587777 0.809023 -0
    outer loop
      vertex 10.037 11.1472 0
      vertex 7.5 12.9904 39
      vertex 10.037 11.1472 39
    endloop
  endfacet
  facet normal 0.587777 0.809023 0
    outer loop
      vertex 7.5 12.9904 39
      vertex 10.037 11.1472 0
      vertex 7.5 12.9904 0
    endloop
  endfacet
  facet normal 0.951059 -0.309008 0
    outer loop
      vertex 13.7032 -6.10105 39
      vertex 14.6722 -3.11868 0
      vertex 14.6722 -3.11868 39
    endloop
  endfacet
  facet normal 0.951059 -0.309008 0
    outer loop
      vertex 14.6722 -3.11868 0
      vertex 13.7032 -6.10105 39
      vertex 13.7032 -6.10105 0
    endloop
  endfacet
  facet normal 0.994521 -0.104533 0
    outer loop
      vertex 14.6722 -3.11868 39
      vertex 15 0 0
      vertex 15 0 39
    endloop
  endfacet
  facet normal 0.994521 -0.104533 0
    outer loop
      vertex 15 0 0
      vertex 14.6722 -3.11868 39
      vertex 14.6722 -3.11868 0
    endloop
  endfacet
  facet normal 0.743148 0.669127 0
    outer loop
      vertex 12.1353 8.81678 39
      vertex 10.037 11.1472 0
      vertex 10.037 11.1472 39
    endloop
  endfacet
  facet normal 0.743148 0.669127 0
    outer loop
      vertex 10.037 11.1472 0
      vertex 12.1353 8.81678 39
      vertex 12.1353 8.81678 0
    endloop
  endfacet
  facet normal -0.951059 -0.309008 0
    outer loop
      vertex -13.7032 -6.10105 0
      vertex -14.6722 -3.11868 39
      vertex -14.6722 -3.11868 0
    endloop
  endfacet
  facet normal -0.951059 -0.309008 0
    outer loop
      vertex -14.6722 -3.11868 39
      vertex -13.7032 -6.10105 0
      vertex -13.7032 -6.10105 39
    endloop
  endfacet
  facet normal -0.951059 0.309008 0
    outer loop
      vertex -14.6722 3.11868 0
      vertex -13.7032 6.10105 39
      vertex -13.7032 6.10105 0
    endloop
  endfacet
  facet normal -0.951059 0.309008 0
    outer loop
      vertex -13.7032 6.10105 39
      vertex -14.6722 3.11868 0
      vertex -14.6722 3.11868 39
    endloop
  endfacet
  facet normal 0.587777 -0.809023 0
    outer loop
      vertex 7.5 -12.9904 0
      vertex 10.037 -11.1472 39
      vertex 7.5 -12.9904 39
    endloop
  endfacet
  facet normal 0.587777 -0.809023 0
    outer loop
      vertex 10.037 -11.1472 39
      vertex 7.5 -12.9904 0
      vertex 10.037 -11.1472 0
    endloop
  endfacet
  facet normal -0.587777 0.809023 0
    outer loop
      vertex -7.5 12.9904 0
      vertex -10.037 11.1472 39
      vertex -7.5 12.9904 39
    endloop
  endfacet
  facet normal -0.587777 0.809023 0
    outer loop
      vertex -10.037 11.1472 39
      vertex -7.5 12.9904 0
      vertex -10.037 11.1472 0
    endloop
  endfacet
  facet normal -0.866029 0.499993 0
    outer loop
      vertex -13.7032 6.10105 0
      vertex -12.1353 8.81678 39
      vertex -12.1353 8.81678 0
    endloop
  endfacet
  facet normal -0.866029 0.499993 0
    outer loop
      vertex -12.1353 8.81678 39
      vertex -13.7032 6.10105 0
      vertex -13.7032 6.10105 39
    endloop
  endfacet
  facet normal 0.866029 -0.499993 0
    outer loop
      vertex 12.1353 -8.81678 39
      vertex 13.7032 -6.10105 0
      vertex 13.7032 -6.10105 39
    endloop
  endfacet
  facet normal 0.866029 -0.499993 0
    outer loop
      vertex 13.7032 -6.10105 0
      vertex 12.1353 -8.81678 39
      vertex 12.1353 -8.81678 0
    endloop
  endfacet
  facet normal 0 1 -0
    outer loop
      vertex 1.56793 14.9178 0
      vertex -1.56793 14.9178 39
      vertex 1.56793 14.9178 39
    endloop
  endfacet
  facet normal 0 1 0
    outer loop
      vertex -1.56793 14.9178 39
      vertex 1.56793 14.9178 0
      vertex -1.56793 14.9178 0
    endloop
  endfacet
  facet normal -0.406718 0.913554 0
    outer loop
      vertex -4.63525 14.2658 0
      vertex -7.5 12.9904 39
      vertex -4.63525 14.2658 39
    endloop
  endfacet
  facet normal -0.406718 0.913554 0
    outer loop
      vertex -7.5 12.9904 39
      vertex -4.63525 14.2658 0
      vertex -7.5 12.9904 0
    endloop
  endfacet
  facet normal -0.207918 -0.978146 0
    outer loop
      vertex -4.63525 -14.2658 0
      vertex -1.56793 -14.9178 39
      vertex -4.63525 -14.2658 39
    endloop
  endfacet
  facet normal -0.207918 -0.978146 -0
    outer loop
      vertex -1.56793 -14.9178 39
      vertex -4.63525 -14.2658 0
      vertex -1.56793 -14.9178 0
    endloop
  endfacet
  facet normal -0.406718 -0.913554 0
    outer loop
      vertex -7.5 -12.9904 0
      vertex -4.63525 -14.2658 39
      vertex -7.5 -12.9904 39
    endloop
  endfacet
  facet normal -0.406718 -0.913554 -0
    outer loop
      vertex -4.63525 -14.2658 39
      vertex -7.5 -12.9904 0
      vertex -4.63525 -14.2658 0
    endloop
  endfacet
  facet normal -0.207918 0.978146 0
    outer loop
      vertex -1.56793 14.9178 0
      vertex -4.63525 14.2658 39
      vertex -1.56793 14.9178 39
    endloop
  endfacet
  facet normal -0.207918 0.978146 0
    outer loop
      vertex -4.63525 14.2658 39
      vertex -1.56793 14.9178 0
      vertex -4.63525 14.2658 0
    endloop
  endfacet
  facet normal 0.207918 -0.978146 0
    outer loop
      vertex 1.56793 -14.9178 0
      vertex 4.63525 -14.2658 39
      vertex 1.56793 -14.9178 39
    endloop
  endfacet
  facet normal 0.207918 -0.978146 0
    outer loop
      vertex 4.63525 -14.2658 39
      vertex 1.56793 -14.9178 0
      vertex 4.63525 -14.2658 0
    endloop
  endfacet
  facet normal 0.743148 -0.669127 0
    outer loop
      vertex 10.037 -11.1472 39
      vertex 12.1353 -8.81678 0
      vertex 12.1353 -8.81678 39
    endloop
  endfacet
  facet normal 0.743148 -0.669127 0
    outer loop
      vertex 12.1353 -8.81678 0
      vertex 10.037 -11.1472 39
      vertex 10.037 -11.1472 0
    endloop
  endfacet
  facet normal 0.406718 -0.913554 0
    outer loop
      vertex 4.63525 -14.2658 0
      vertex 7.5 -12.9904 39
      vertex 4.63525 -14.2658 39
    endloop
  endfacet
  facet normal 0.406718 -0.913554 0
    outer loop
      vertex 7.5 -12.9904 39
      vertex 4.63525 -14.2658 0
      vertex 7.5 -12.9904 0
    endloop
  endfacet
  facet normal -0.587777 -0.809023 0
    outer loop
      vertex -10.037 -11.1472 0
      vertex -7.5 -12.9904 39
      vertex -10.037 -11.1472 39
    endloop
  endfacet
  facet normal -0.587777 -0.809023 -0
    outer loop
      vertex -7.5 -12.9904 39
      vertex -10.037 -11.1472 0
      vertex -7.5 -12.9904 0
    endloop
  endfacet
  facet normal -0.994521 0.104533 0
    outer loop
      vertex -15 0 0
      vertex -14.6722 3.11868 39
      vertex -14.6722 3.11868 0
    endloop
  endfacet
  facet normal -0.994521 0.104533 0
    outer loop
      vertex -14.6722 3.11868 39
      vertex -15 0 0
      vertex -15 0 39
    endloop
  endfacet
  facet normal 0.207918 0.978146 -0
    outer loop
      vertex 4.63525 14.2658 0
      vertex 1.56793 14.9178 39
      vertex 4.63525 14.2658 39
    endloop
  endfacet
  facet normal 0.207918 0.978146 0
    outer loop
      vertex 1.56793 14.9178 39
      vertex 4.63525 14.2658 0
      vertex 1.56793 14.9178 0
    endloop
  endfacet
  facet normal -0.866029 -0.499993 0
    outer loop
      vertex -12.1353 -8.81678 0
      vertex -13.7032 -6.10105 39
      vertex -13.7032 -6.10105 0
    endloop
  endfacet
  facet normal -0.866029 -0.499993 0
    outer loop
      vertex -13.7032 -6.10105 39
      vertex -12.1353 -8.81678 0
      vertex -12.1353 -8.81678 39
    endloop
  endfacet
  facet normal 0.406718 0.913554 -0
    outer loop
      vertex 7.5 12.9904 0
      vertex 4.63525 14.2658 39
      vertex 7.5 12.9904 39
    endloop
  endfacet
  facet normal 0.406718 0.913554 0
    outer loop
      vertex 4.63525 14.2658 39
      vertex 7.5 12.9904 0
      vertex 4.63525 14.2658 0
    endloop
  endfacet
  facet normal 0 -1 0
    outer loop
      vertex -1.56793 -14.9178 0
      vertex 1.56793 -14.9178 39
      vertex -1.56793 -14.9178 39
    endloop
  endfacet
  facet normal 0 -1 -0
    outer loop
      vertex 1.56793 -14.9178 39
      vertex -1.56793 -14.9178 0
      vertex 1.56793 -14.9178 0
    endloop
  endfacet
  facet normal -0.994521 -0.104533 0
    outer loop
      vertex -14.6722 -3.11868 0
      vertex -15 0 39
      vertex -15 0 0
    endloop
  endfacet
  facet normal -0.994521 -0.104533 0
    outer loop
      vertex -15 0 39
      vertex -14.6722 -3.11868 0
      vertex -14.6722 -3.11868 39
    endloop
  endfacet
  facet normal -0.743148 -0.669127 0
    outer loop
      vertex -10.037 -11.1472 0
      vertex -12.1353 -8.81678 39
      vertex -12.1353 -8.81678 0
    endloop
  endfacet
  facet normal -0.743148 -0.669127 0
    outer loop
      vertex -12.1353 -8.81678 39
      vertex -10.037 -11.1472 0
      vertex -10.037 -11.1472 39
    endloop
  endfacet
  facet normal -0.743148 0.669127 0
    outer loop
      vertex -12.1353 8.81678 0
      vertex -10.037 11.1472 39
      vertex -10.037 11.1472 0
    endloop
  endfacet
  facet normal -0.743148 0.669127 0
    outer loop
      vertex -10.037 11.1472 39
      vertex -12.1353 8.81678 0
      vertex -12.1353 8.81678 39
    endloop
  endfacet
  facet normal 0.810773 0.0852192 0.579124
    outer loop
      vertex 14.6722 3.11868 39
      vertex 0 0 60
      vertex 15 0 39
    endloop
  endfacet
  facet normal 0.479179 -0.659547 0.579125
    outer loop
      vertex 10.037 -11.1472 39
      vertex 0 0 60
      vertex 7.5 -12.9904 39
    endloop
  endfacet
  facet normal -0.605843 -0.545498 0.579125
    outer loop
      vertex 0 0 60
      vertex -12.1353 -8.81678 39
      vertex -10.037 -11.1472 39
    endloop
  endfacet
  facet normal 0.169503 0.797424 0.579123
    outer loop
      vertex 1.56793 14.9178 39
      vertex 0 0 60
      vertex 4.63525 14.2658 39
    endloop
  endfacet
  facet normal -0.706021 0.407614 0.579125
    outer loop
      vertex -12.1353 8.81678 39
      vertex -13.7032 6.10105 39
      vertex 0 0 60
    endloop
  endfacet
  facet normal 0.331573 0.744765 0.579124
    outer loop
      vertex 4.63525 14.2658 39
      vertex 0 0 60
      vertex 7.5 12.9904 39
    endloop
  endfacet
  facet normal 0.706021 -0.407614 0.579125
    outer loop
      vertex 13.7032 -6.10105 39
      vertex 0 0 60
      vertex 12.1353 -8.81678 39
    endloop
  endfacet
  facet normal -0.810773 0.0852192 0.579124
    outer loop
      vertex -14.6722 3.11868 39
      vertex -15 0 39
      vertex 0 0 60
    endloop
  endfacet
  facet normal -0.169503 -0.797424 0.579123
    outer loop
      vertex 0 0 60
      vertex -4.63525 -14.2658 39
      vertex -1.56793 -14.9178 39
    endloop
  endfacet
  facet normal -0.169503 0.797424 0.579123
    outer loop
      vertex -1.56793 14.9178 39
      vertex -4.63525 14.2658 39
      vertex 0 0 60
    endloop
  endfacet
  facet normal -0.605843 0.545498 0.579125
    outer loop
      vertex -10.037 11.1472 39
      vertex -12.1353 8.81678 39
      vertex 0 0 60
    endloop
  endfacet
  facet normal 0.775341 -0.251916 0.579124
    outer loop
      vertex 14.6722 -3.11868 39
      vertex 0 0 60
      vertex 13.7032 -6.10105 39
    endloop
  endfacet
  facet normal 0.605843 0.545498 0.579125
    outer loop
      vertex 10.037 11.1472 39
      vertex 0 0 60
      vertex 12.1353 8.81678 39
    endloop
  endfacet
  facet normal -0.775341 0.251916 0.579124
    outer loop
      vertex -13.7032 6.10105 39
      vertex -14.6722 3.11868 39
      vertex 0 0 60
    endloop
  endfacet
  facet normal 0.479179 0.659547 0.579125
    outer loop
      vertex 7.5 12.9904 39
      vertex 0 0 60
      vertex 10.037 11.1472 39
    endloop
  endfacet
  facet normal 0 0.81524 0.579123
    outer loop
      vertex 1.56793 14.9178 39
      vertex -1.56793 14.9178 39
      vertex 0 0 60
    endloop
  endfacet
  facet normal -0.706021 -0.407614 0.579125
    outer loop
      vertex 0 0 60
      vertex -13.7032 -6.10105 39
      vertex -12.1353 -8.81678 39
    endloop
  endfacet
  facet normal -0.479179 0.659547 0.579125
    outer loop
      vertex -7.5 12.9904 39
      vertex -10.037 11.1472 39
      vertex 0 0 60
    endloop
  endfacet
  facet normal -0.331573 0.744765 0.579124
    outer loop
      vertex -4.63525 14.2658 39
      vertex -7.5 12.9904 39
      vertex 0 0 60
    endloop
  endfacet
  facet normal 0.169503 -0.797424 0.579123
    outer loop
      vertex 4.63525 -14.2658 39
      vertex 0 0 60
      vertex 1.56793 -14.9178 39
    endloop
  endfacet
  facet normal 0 -0.81524 0.579123
    outer loop
      vertex 0 0 60
      vertex -1.56793 -14.9178 39
      vertex 1.56793 -14.9178 39
    endloop
  endfacet
  facet normal 0.331573 -0.744765 0.579124
    outer loop
      vertex 7.5 -12.9904 39
      vertex 0 0 60
      vertex 4.63525 -14.2658 39
    endloop
  endfacet
  facet normal 0.605843 -0.545498 0.579125
    outer loop
      vertex 12.1353 -8.81678 39
      vertex 0 0 60
      vertex 10.037 -11.1472 39
    endloop
  endfacet
  facet normal 0.810773 -0.0852192 0.579124
    outer loop
      vertex 15 0 39
      vertex 0 0 60
      vertex 14.6722 -3.11868 39
    endloop
  endfacet
  facet normal 0.706021 0.407614 0.579125
    outer loop
      vertex 12.1353 8.81678 39
      vertex 0 0 60
      vertex 13.7032 6.10105 39
    endloop
  endfacet
  facet normal 0.775341 0.251916 0.579124
    outer loop
      vertex 13.7032 6.10105 39
      vertex 0 0 60
      vertex 14.6722 3.11868 39
    endloop
  endfacet
  facet normal -0.331573 -0.744765 0.579124
    outer loop
      vertex 0 0 60
      vertex -7.5 -12.9904 39
      vertex -4.63525 -14.2658 39
    endloop
  endfacet
  facet normal -0.479179 -0.659547 0.579125
    outer loop
      vertex 0 0 60
      vertex -10.037 -11.1472 39
      vertex -7.5 -12.9904 39
    endloop
  endfacet
  facet normal -0.775341 -0.251916 0.579124
    outer loop
      vertex 0 0 60
      vertex -14.6722 -3.11868 39
      vertex -13.7032 -6.10105 39
    endloop
  endfacet
  facet normal -0.810773 -0.0852192 0.579124
    outer loop
      vertex 0 0 60
      vertex -15 0 39
      vertex -14.6722 -3.11868 39
    endloop
  endfacet
  facet normal 0.854032 0.0897526 -0.512419
    outer loop
      vertex 12 0 -5
      vertex 11.7378 2.49494 -5
      vertex 15 0 0
    endloop
  endfacet
  facet normal -0.504748 0.694731 -0.512424
    outer loop
      vertex -8.02957 8.91774 -5
      vertex -10.037 11.1472 0
      vertex -6 10.3923 -5
    endloop
  endfacet
  facet normal -0.854034 0.0897663 -0.512414
    outer loop
      vertex -11.7378 2.49494 -5
      vertex -15 0 0
      vertex -14.6722 3.11868 0
    endloop
  endfacet
  facet normal 0.504748 -0.694731 -0.512424
    outer loop
      vertex 10.037 -11.1472 0
      vertex 6 -10.3923 -5
      vertex 8.02957 -8.91774 -5
    endloop
  endfacet
  facet normal 0.178548 -0.839974 -0.512411
    outer loop
      vertex 1.56793 -14.9178 0
      vertex 1.25434 -11.9343 -5
      vertex 4.63525 -14.2658 0
    endloop
  endfacet
  facet normal 0.349288 0.784496 -0.51241
    outer loop
      vertex 6 10.3923 -5
      vertex 3.7082 11.4127 -5
      vertex 4.63525 14.2658 0
    endloop
  endfacet
  facet normal 0.638164 0.574602 -0.512424
    outer loop
      vertex 9.7082 7.05342 -5
      vertex 8.02957 8.91774 -5
      vertex 10.037 11.1472 0
    endloop
  endfacet
  facet normal 0.638165 0.574601 -0.512424
    outer loop
      vertex 12.1353 8.81678 0
      vertex 9.7082 7.05342 -5
      vertex 10.037 11.1472 0
    endloop
  endfacet
  facet normal -0.504748 -0.694731 -0.512424
    outer loop
      vertex -6 -10.3923 -5
      vertex -10.037 -11.1472 0
      vertex -8.02957 -8.91774 -5
    endloop
  endfacet
  facet normal -0.349263 -0.7845 -0.512421
    outer loop
      vertex -4.63525 -14.2658 0
      vertex -7.5 -12.9904 0
      vertex -6 -10.3923 -5
    endloop
  endfacet
  facet normal 0.178547 -0.839974 -0.51241
    outer loop
      vertex 4.63525 -14.2658 0
      vertex 1.25434 -11.9343 -5
      vertex 3.7082 -11.4127 -5
    endloop
  endfacet
  facet normal 0 0.858741 -0.512411
    outer loop
      vertex 1.25434 11.9343 -5
      vertex -1.56793 14.9178 0
      vertex 1.56793 14.9178 0
    endloop
  endfacet
  facet normal 0 0.858741 -0.512411
    outer loop
      vertex -1.56793 14.9178 0
      vertex 1.25434 11.9343 -5
      vertex -1.25434 11.9343 -5
    endloop
  endfacet
  facet normal -0.816702 0.265388 -0.512413
    outer loop
      vertex -11.7378 2.49494 -5
      vertex -14.6722 3.11868 0
      vertex -10.9625 4.88084 -5
    endloop
  endfacet
  facet normal -0.178548 -0.839974 -0.512411
    outer loop
      vertex -1.56793 -14.9178 0
      vertex -4.63525 -14.2658 0
      vertex -1.25434 -11.9343 -5
    endloop
  endfacet
  facet normal -0.504744 -0.694735 -0.512422
    outer loop
      vertex -7.5 -12.9904 0
      vertex -10.037 -11.1472 0
      vertex -6 -10.3923 -5
    endloop
  endfacet
  facet normal -0.74369 0.429356 -0.512424
    outer loop
      vertex -10.9625 4.88084 -5
      vertex -12.1353 8.81678 0
      vertex -9.7082 7.05342 -5
    endloop
  endfacet
  facet normal 0.349288 -0.784496 -0.51241
    outer loop
      vertex 4.63525 -14.2658 0
      vertex 3.7082 -11.4127 -5
      vertex 6 -10.3923 -5
    endloop
  endfacet
  facet normal 0.638165 -0.574601 -0.512424
    outer loop
      vertex 10.037 -11.1472 0
      vertex 9.7082 -7.05342 -5
      vertex 12.1353 -8.81678 0
    endloop
  endfacet
  facet normal 0.816704 -0.265355 -0.512426
    outer loop
      vertex 13.7032 -6.10105 0
      vertex 10.9625 -4.88084 -5
      vertex 14.6722 -3.11868 0
    endloop
  endfacet
  facet normal -0.816704 0.265355 -0.512426
    outer loop
      vertex -10.9625 4.88084 -5
      vertex -14.6722 3.11868 0
      vertex -13.7032 6.10105 0
    endloop
  endfacet
  facet normal -0.816702 -0.265388 -0.512413
    outer loop
      vertex -10.9625 -4.88084 -5
      vertex -14.6722 -3.11868 0
      vertex -11.7378 -2.49494 -5
    endloop
  endfacet
  facet normal 0 -0.858741 -0.512411
    outer loop
      vertex -1.25434 -11.9343 -5
      vertex 1.56793 -14.9178 0
      vertex -1.56793 -14.9178 0
    endloop
  endfacet
  facet normal 0 -0.858741 -0.512411
    outer loop
      vertex 1.56793 -14.9178 0
      vertex -1.25434 -11.9343 -5
      vertex 1.25434 -11.9343 -5
    endloop
  endfacet
  facet normal 0.178548 0.839974 -0.512411
    outer loop
      vertex 4.63525 14.2658 0
      vertex 1.25434 11.9343 -5
      vertex 1.56793 14.9178 0
    endloop
  endfacet
  facet normal 0.854034 0.0897663 -0.512414
    outer loop
      vertex 15 0 0
      vertex 11.7378 2.49494 -5
      vertex 14.6722 3.11868 0
    endloop
  endfacet
  facet normal 0.504748 0.694731 -0.512424
    outer loop
      vertex 8.02957 8.91774 -5
      vertex 6 10.3923 -5
      vertex 10.037 11.1472 0
    endloop
  endfacet
  facet normal 0.854034 -0.0897663 -0.512414
    outer loop
      vertex 14.6722 -3.11868 0
      vertex 11.7378 -2.49494 -5
      vertex 15 0 0
    endloop
  endfacet
  facet normal -0.504744 0.694735 -0.512422
    outer loop
      vertex -6 10.3923 -5
      vertex -10.037 11.1472 0
      vertex -7.5 12.9904 0
    endloop
  endfacet
  facet normal -0.349263 0.7845 -0.512421
    outer loop
      vertex -6 10.3923 -5
      vertex -7.5 12.9904 0
      vertex -4.63525 14.2658 0
    endloop
  endfacet
  facet normal 0.816702 -0.265388 -0.512413
    outer loop
      vertex 14.6722 -3.11868 0
      vertex 10.9625 -4.88084 -5
      vertex 11.7378 -2.49494 -5
    endloop
  endfacet
  facet normal -0.74369 -0.429356 -0.512424
    outer loop
      vertex -9.7082 -7.05342 -5
      vertex -12.1353 -8.81678 0
      vertex -10.9625 -4.88084 -5
    endloop
  endfacet
  facet normal 0.349263 0.7845 -0.512421
    outer loop
      vertex 6 10.3923 -5
      vertex 4.63525 14.2658 0
      vertex 7.5 12.9904 0
    endloop
  endfacet
  facet normal -0.178548 0.839974 -0.512411
    outer loop
      vertex -1.25434 11.9343 -5
      vertex -4.63525 14.2658 0
      vertex -1.56793 14.9178 0
    endloop
  endfacet
  facet normal 0.504744 -0.694735 -0.512422
    outer loop
      vertex 7.5 -12.9904 0
      vertex 6 -10.3923 -5
      vertex 10.037 -11.1472 0
    endloop
  endfacet
  facet normal 0.74369 0.429356 -0.512424
    outer loop
      vertex 10.9625 4.88084 -5
      vertex 9.7082 7.05342 -5
      vertex 12.1353 8.81678 0
    endloop
  endfacet
  facet normal 0.743686 0.42936 -0.512426
    outer loop
      vertex 13.7032 6.10105 0
      vertex 10.9625 4.88084 -5
      vertex 12.1353 8.81678 0
    endloop
  endfacet
  facet normal -0.743686 0.42936 -0.512426
    outer loop
      vertex -10.9625 4.88084 -5
      vertex -13.7032 6.10105 0
      vertex -12.1353 8.81678 0
    endloop
  endfacet
  facet normal 0.854032 -0.0897526 -0.512419
    outer loop
      vertex 15 0 0
      vertex 11.7378 -2.49494 -5
      vertex 12 0 -5
    endloop
  endfacet
  facet normal -0.854034 -0.0897663 -0.512414
    outer loop
      vertex -14.6722 -3.11868 0
      vertex -15 0 0
      vertex -11.7378 -2.49494 -5
    endloop
  endfacet
  facet normal 0.743686 -0.42936 -0.512426
    outer loop
      vertex 12.1353 -8.81678 0
      vertex 10.9625 -4.88084 -5
      vertex 13.7032 -6.10105 0
    endloop
  endfacet
  facet normal 0.816704 0.265355 -0.512426
    outer loop
      vertex 14.6722 3.11868 0
      vertex 10.9625 4.88084 -5
      vertex 13.7032 6.10105 0
    endloop
  endfacet
  facet normal 0.816702 0.265388 -0.512413
    outer loop
      vertex 11.7378 2.49494 -5
      vertex 10.9625 4.88084 -5
      vertex 14.6722 3.11868 0
    endloop
  endfacet
  facet normal 0.504744 0.694735 -0.512422
    outer loop
      vertex 10.037 11.1472 0
      vertex 6 10.3923 -5
      vertex 7.5 12.9904 0
    endloop
  endfacet
  facet normal -0.854032 -0.0897526 -0.512419
    outer loop
      vertex -11.7378 -2.49494 -5
      vertex -15 0 0
      vertex -12 0 -5
    endloop
  endfacet
  facet normal -0.854032 0.0897526 -0.512419
    outer loop
      vertex -12 0 -5
      vertex -15 0 0
      vertex -11.7378 2.49494 -5
    endloop
  endfacet
  facet normal -0.638164 0.574602 -0.512424
    outer loop
      vertex -9.7082 7.05342 -5
      vertex -10.037 11.1472 0
      vertex -8.02957 8.91774 -5
    endloop
  endfacet
  facet normal -0.743686 -0.42936 -0.512426
    outer loop
      vertex -12.1353 -8.81678 0
      vertex -13.7032 -6.10105 0
      vertex -10.9625 -4.88084 -5
    endloop
  endfacet
  facet normal 0.74369 -0.429356 -0.512424
    outer loop
      vertex 12.1353 -8.81678 0
      vertex 9.7082 -7.05342 -5
      vertex 10.9625 -4.88084 -5
    endloop
  endfacet
  facet normal 0.638164 -0.574602 -0.512424
    outer loop
      vertex 10.037 -11.1472 0
      vertex 8.02957 -8.91774 -5
      vertex 9.7082 -7.05342 -5
    endloop
  endfacet
  facet normal 0.349263 -0.7845 -0.512421
    outer loop
      vertex 7.5 -12.9904 0
      vertex 4.63525 -14.2658 0
      vertex 6 -10.3923 -5
    endloop
  endfacet
  facet normal -0.638165 0.574601 -0.512424
    outer loop
      vertex -9.7082 7.05342 -5
      vertex -12.1353 8.81678 0
      vertex -10.037 11.1472 0
    endloop
  endfacet
  facet normal -0.349288 -0.784496 -0.51241
    outer loop
      vertex -4.63525 -14.2658 0
      vertex -6 -10.3923 -5
      vertex -3.7082 -11.4127 -5
    endloop
  endfacet
  facet normal 0 0 -1
    outer loop
      vertex 11.7378 -2.49494 -5
      vertex 11.7378 2.49494 -5
      vertex 12 0 -5
    endloop
  endfacet
  facet normal 0 0 -1
    outer loop
      vertex 10.9625 -4.88084 -5
      vertex 11.7378 2.49494 -5
      vertex 11.7378 -2.49494 -5
    endloop
  endfacet
  facet normal 0 0 -1
    outer loop
      vertex 10.9625 -4.88084 -5
      vertex 10.9625 4.88084 -5
      vertex 11.7378 2.49494 -5
    endloop
  endfacet
  facet normal 0 0 -1
    outer loop
      vertex 9.7082 -7.05342 -5
      vertex 10.9625 4.88084 -5
      vertex 10.9625 -4.88084 -5
    endloop
  endfacet
  facet normal 0 0 -1
    outer loop
      vertex 9.7082 -7.05342 -5
      vertex 9.7082 7.05342 -5
      vertex 10.9625 4.88084 -5
    endloop
  endfacet
  facet normal 0 0 -1
    outer loop
      vertex 8.02957 -8.91774 -5
      vertex 9.7082 7.05342 -5
      vertex 9.7082 -7.05342 -5
    endloop
  endfacet
  facet normal 0 0 -1
    outer loop
      vertex 8.02957 -8.91774 -5
      vertex 8.02957 8.91774 -5
      vertex 9.7082 7.05342 -5
    endloop
  endfacet
  facet normal 0 0 -1
    outer loop
      vertex 6 -10.3923 -5
      vertex 8.02957 8.91774 -5
      vertex 8.02957 -8.91774 -5
    endloop
  endfacet
  facet normal 0 0 -1
    outer loop
      vertex 6 -10.3923 -5
      vertex 6 10.3923 -5
      vertex 8.02957 8.91774 -5
    endloop
  endfacet
  facet normal 0 0 -1
    outer loop
      vertex 3.7082 -11.4127 -5
      vertex 6 10.3923 -5
      vertex 6 -10.3923 -5
    endloop
  endfacet
  facet normal 0 0 -1
    outer loop
      vertex 3.7082 -11.4127 -5
      vertex 3.7082 11.4127 -5
      vertex 6 10.3923 -5
    endloop
  endfacet
  facet normal 0 0 -1
    outer loop
      vertex 1.25434 -11.9343 -5
      vertex 3.7082 11.4127 -5
      vertex 3.7082 -11.4127 -5
    endloop
  endfacet
  facet normal 0 0 -1
    outer loop
      vertex 1.25434 -11.9343 -5
      vertex 1.25434 11.9343 -5
      vertex 3.7082 11.4127 -5
    endloop
  endfacet
  facet normal 0 0 -1
    outer loop
      vertex -1.25434 -11.9343 -5
      vertex 1.25434 11.9343 -5
      vertex 1.25434 -11.9343 -5
    endloop
  endfacet
  facet normal 0 0 -1
    outer loop
      vertex -1.25434 -11.9343 -5
      vertex -1.25434 11.9343 -5
      vertex 1.25434 11.9343 -5
    endloop
  endfacet
  facet normal 0 0 -1
    outer loop
      vertex -3.7082 -11.4127 -5
      vertex -1.25434 11.9343 -5
      vertex -1.25434 -11.9343 -5
    endloop
  endfacet
  facet normal 0 0 -1
    outer loop
      vertex -3.7082 -11.4127 -5
      vertex -3.7082 11.4127 -5
      vertex -1.25434 11.9343 -5
    endloop
  endfacet
  facet normal 0 0 -1
    outer loop
      vertex -6 -10.3923 -5
      vertex -3.7082 11.4127 -5
      vertex -3.7082 -11.4127 -5
    endloop
  endfacet
  facet normal 0 0 -1
    outer loop
      vertex -6 -10.3923 -5
      vertex -6 10.3923 -5
      vertex -3.7082 11.4127 -5
    endloop
  endfacet
  facet normal 0 0 -1
    outer loop
      vertex -8.02957 -8.91774 -5
      vertex -6 10.3923 -5
      vertex -6 -10.3923 -5
    endloop
  endfacet
  facet normal 0 0 -1
    outer loop
      vertex -8.02957 -8.91774 -5
      vertex -8.02957 8.91774 -5
      vertex -6 10.3923 -5
    endloop
  endfacet
  facet normal 0 0 -1
    outer loop
      vertex -9.7082 -7.05342 -5
      vertex -8.02957 8.91774 -5
      vertex -8.02957 -8.91774 -5
    endloop
  endfacet
  facet normal 0 0 -1
    outer loop
      vertex -9.7082 -7.05342 -5
      vertex -9.7082 7.05342 -5
      vertex -8.02957 8.91774 -5
    endloop
  endfacet
  facet normal 0 0 -1
    outer loop
      vertex -10.9625 -4.88084 -5
      vertex -9.7082 7.05342 -5
      vertex -9.7082 -7.05342 -5
    endloop
  endfacet
  facet normal 0 0 -1
    outer loop
      vertex -10.9625 -4.88084 -5
      vertex -10.9625 4.88084 -5
      vertex -9.7082 7.05342 -5
    endloop
  endfacet
  facet normal 0 0 -1
    outer loop
      vertex -11.7378 -2.49494 -5
      vertex -10.9625 4.88084 -5
      vertex -10.9625 -4.88084 -5
    endloop
  endfacet
  facet normal 0 0 -1
    outer loop
      vertex -11.7378 -2.49494 -5
      vertex -11.7378 2.49494 -5
      vertex -10.9625 4.88084 -5
    endloop
  endfacet
  facet normal 0 -0 -1
    outer loop
      vertex -11.7378 2.49494 -5
      vertex -11.7378 -2.49494 -5
      vertex -12 0 -5
    endloop
  endfacet
  facet normal 0.178547 0.839974 -0.51241
    outer loop
      vertex 3.7082 11.4127 -5
      vertex 1.25434 11.9343 -5
      vertex 4.63525 14.2658 0
    endloop
  endfacet
  facet normal -0.638165 -0.574601 -0.512424
    outer loop
      vertex -10.037 -11.1472 0
      vertex -12.1353 -8.81678 0
      vertex -9.7082 -7.05342 -5
    endloop
  endfacet
  facet normal -0.349288 0.784496 -0.51241
    outer loop
      vertex -3.7082 11.4127 -5
      vertex -6 10.3923 -5
      vertex -4.63525 14.2658 0
    endloop
  endfacet
  facet normal -0.178547 0.839974 -0.51241
    outer loop
      vertex -3.7082 11.4127 -5
      vertex -4.63525 14.2658 0
      vertex -1.25434 11.9343 -5
    endloop
  endfacet
  facet normal -0.816704 -0.265355 -0.512426
    outer loop
      vertex -13.7032 -6.10105 0
      vertex -14.6722 -3.11868 0
      vertex -10.9625 -4.88084 -5
    endloop
  endfacet
  facet normal -0.178547 -0.839974 -0.51241
    outer loop
      vertex -1.25434 -11.9343 -5
      vertex -4.63525 -14.2658 0
      vertex -3.7082 -11.4127 -5
    endloop
  endfacet
  facet normal -0.638164 -0.574602 -0.512424
    outer loop
      vertex -8.02957 -8.91774 -5
      vertex -10.037 -11.1472 0
      vertex -9.7082 -7.05342 -5
    endloop
  endfacet
endsolid OpenSCAD_Model
